<mxfile host="app.diagrams.net" modified="2024-05-24T02:00:02.695Z" agent="Mozilla/5.0 (Windows NT 10.0; Win64; x64) AppleWebKit/537.36 (KHTML, like Gecko) Chrome/125.0.0.0 Safari/537.36" etag="Ata5aXWfVqvhbo_sjSoV" version="24.4.7" type="github" pages="3">
  <diagram name="Page-2" id="XL3eCxpyWtEeukDun9zr">
    <mxGraphModel dx="901" dy="1578" grid="0" gridSize="10" guides="1" tooltips="1" connect="1" arrows="1" fold="1" page="1" pageScale="1" pageWidth="850" pageHeight="1100" math="0" shadow="0">
      <root>
        <mxCell id="KEGzqHDlvnHYpoda9I_1-0" />
        <mxCell id="KEGzqHDlvnHYpoda9I_1-1" parent="KEGzqHDlvnHYpoda9I_1-0" />
        <mxCell id="qhgat8wSMTNiafaL7B5G-178" value="" style="rounded=1;whiteSpace=wrap;html=1;container=0;" parent="KEGzqHDlvnHYpoda9I_1-1" vertex="1">
          <mxGeometry x="550" y="-708" width="290" height="220" as="geometry" />
        </mxCell>
        <mxCell id="qhgat8wSMTNiafaL7B5G-137" value="" style="group" parent="KEGzqHDlvnHYpoda9I_1-1" vertex="1" connectable="0">
          <mxGeometry x="10" y="-1062.94" width="470" height="282" as="geometry" />
        </mxCell>
        <mxCell id="KEGzqHDlvnHYpoda9I_1-122" value="&lt;font style=&quot;font-size: 16px;&quot;&gt;Step 1&lt;/font&gt;" style="rounded=1;whiteSpace=wrap;html=1;" parent="qhgat8wSMTNiafaL7B5G-137" vertex="1">
          <mxGeometry x="29" width="80" height="30" as="geometry" />
        </mxCell>
        <mxCell id="KEGzqHDlvnHYpoda9I_1-5" value="" style="rounded=1;whiteSpace=wrap;html=1;" parent="qhgat8wSMTNiafaL7B5G-137" vertex="1">
          <mxGeometry y="30" width="470" height="252" as="geometry" />
        </mxCell>
        <mxCell id="qhgat8wSMTNiafaL7B5G-134" value="" style="group" parent="qhgat8wSMTNiafaL7B5G-137" vertex="1" connectable="0">
          <mxGeometry x="324.11673306772906" y="47.940000000000055" width="126.88102893890681" height="177.96839228295812" as="geometry" />
        </mxCell>
        <mxCell id="qhgat8wSMTNiafaL7B5G-36" value="b" style="ellipse;whiteSpace=wrap;html=1;aspect=fixed;fontStyle=0;verticalAlign=middle;" parent="qhgat8wSMTNiafaL7B5G-134" vertex="1">
          <mxGeometry x="52.900000000000034" y="161.08736334405137" width="16.881028938906752" height="16.881028938906752" as="geometry" />
        </mxCell>
        <mxCell id="qhgat8wSMTNiafaL7B5G-38" value="d" style="ellipse;whiteSpace=wrap;html=1;aspect=fixed;fontStyle=0;verticalAlign=middle;" parent="qhgat8wSMTNiafaL7B5G-134" vertex="1">
          <mxGeometry x="24.900000000000034" y="108.65736334405142" width="16.881028938906752" height="16.881028938906752" as="geometry" />
        </mxCell>
        <mxCell id="qhgat8wSMTNiafaL7B5G-117" style="rounded=0;orthogonalLoop=1;jettySize=auto;html=1;exitX=1;exitY=1;exitDx=0;exitDy=0;entryX=0.5;entryY=0;entryDx=0;entryDy=0;endArrow=blockThin;endFill=1;" parent="qhgat8wSMTNiafaL7B5G-134" source="qhgat8wSMTNiafaL7B5G-40" target="qhgat8wSMTNiafaL7B5G-43" edge="1">
          <mxGeometry relative="1" as="geometry" />
        </mxCell>
        <mxCell id="qhgat8wSMTNiafaL7B5G-40" value="R" style="ellipse;whiteSpace=wrap;html=1;aspect=fixed;fontStyle=0;fillColor=#cccccc;" parent="qhgat8wSMTNiafaL7B5G-134" vertex="1">
          <mxGeometry x="24.903266932270924" width="26.23" height="26.23" as="geometry" />
        </mxCell>
        <mxCell id="qhgat8wSMTNiafaL7B5G-118" style="rounded=0;orthogonalLoop=1;jettySize=auto;html=1;exitX=1;exitY=1;exitDx=0;exitDy=0;entryX=0.5;entryY=0;entryDx=0;entryDy=0;endArrow=blockThin;endFill=1;" parent="qhgat8wSMTNiafaL7B5G-134" source="qhgat8wSMTNiafaL7B5G-43" target="qhgat8wSMTNiafaL7B5G-45" edge="1">
          <mxGeometry relative="1" as="geometry" />
        </mxCell>
        <mxCell id="qhgat8wSMTNiafaL7B5G-119" style="rounded=0;orthogonalLoop=1;jettySize=auto;html=1;exitX=0;exitY=1;exitDx=0;exitDy=0;entryX=0.5;entryY=0;entryDx=0;entryDy=0;endArrow=blockThin;endFill=1;" parent="qhgat8wSMTNiafaL7B5G-134" source="qhgat8wSMTNiafaL7B5G-43" target="qhgat8wSMTNiafaL7B5G-38" edge="1">
          <mxGeometry relative="1" as="geometry" />
        </mxCell>
        <mxCell id="qhgat8wSMTNiafaL7B5G-43" value="bcd" style="ellipse;whiteSpace=wrap;html=1;aspect=fixed;fontStyle=0;fillColor=#cccccc;" parent="qhgat8wSMTNiafaL7B5G-134" vertex="1">
          <mxGeometry x="52.00039840637447" y="50.617266881028854" width="28" height="28" as="geometry" />
        </mxCell>
        <mxCell id="qhgat8wSMTNiafaL7B5G-120" style="rounded=0;orthogonalLoop=1;jettySize=auto;html=1;exitX=0;exitY=1;exitDx=0;exitDy=0;entryX=0.5;entryY=0;entryDx=0;entryDy=0;endArrow=blockThin;endFill=1;" parent="qhgat8wSMTNiafaL7B5G-134" source="qhgat8wSMTNiafaL7B5G-45" target="qhgat8wSMTNiafaL7B5G-36" edge="1">
          <mxGeometry relative="1" as="geometry" />
        </mxCell>
        <mxCell id="qhgat8wSMTNiafaL7B5G-121" style="rounded=0;orthogonalLoop=1;jettySize=auto;html=1;exitX=1;exitY=1;exitDx=0;exitDy=0;entryX=0.5;entryY=0;entryDx=0;entryDy=0;endArrow=blockThin;endFill=1;" parent="qhgat8wSMTNiafaL7B5G-134" source="qhgat8wSMTNiafaL7B5G-45" target="qhgat8wSMTNiafaL7B5G-47" edge="1">
          <mxGeometry relative="1" as="geometry" />
        </mxCell>
        <mxCell id="qhgat8wSMTNiafaL7B5G-45" value="bc" style="ellipse;whiteSpace=wrap;html=1;aspect=fixed;fontStyle=0;fillColor=#cccccc;" parent="qhgat8wSMTNiafaL7B5G-134" vertex="1">
          <mxGeometry x="77.80039840637448" y="103.09726688102887" width="28" height="28" as="geometry" />
        </mxCell>
        <mxCell id="qhgat8wSMTNiafaL7B5G-47" value="c" style="ellipse;whiteSpace=wrap;html=1;aspect=fixed;fontStyle=0;verticalAlign=bottom;" parent="qhgat8wSMTNiafaL7B5G-134" vertex="1">
          <mxGeometry x="110.00000000000006" y="161.08736334405137" width="16.881028938906752" height="16.881028938906752" as="geometry" />
        </mxCell>
        <mxCell id="qhgat8wSMTNiafaL7B5G-136" value="" style="group" parent="qhgat8wSMTNiafaL7B5G-137" vertex="1" connectable="0">
          <mxGeometry x="19.996733067729053" y="47.940000000000055" width="126.88102893890675" height="177.96839228295812" as="geometry" />
        </mxCell>
        <mxCell id="qhgat8wSMTNiafaL7B5G-18" value="b" style="ellipse;whiteSpace=wrap;html=1;aspect=fixed;fontStyle=0;verticalAlign=middle;" parent="qhgat8wSMTNiafaL7B5G-136" vertex="1">
          <mxGeometry x="52.900000000000006" y="161.08736334405137" width="16.881028938906752" height="16.881028938906752" as="geometry" />
        </mxCell>
        <mxCell id="qhgat8wSMTNiafaL7B5G-9" value="a" style="ellipse;whiteSpace=wrap;html=1;aspect=fixed;fontStyle=0;verticalAlign=middle;" parent="qhgat8wSMTNiafaL7B5G-136" vertex="1">
          <mxGeometry x="24.900000000000006" y="108.65736334405142" width="16.881028938906752" height="16.881028938906752" as="geometry" />
        </mxCell>
        <mxCell id="qhgat8wSMTNiafaL7B5G-129" style="rounded=0;orthogonalLoop=1;jettySize=auto;html=1;exitX=1;exitY=1;exitDx=0;exitDy=0;entryX=0.5;entryY=0;entryDx=0;entryDy=0;endArrow=blockThin;endFill=1;" parent="qhgat8wSMTNiafaL7B5G-136" source="KEGzqHDlvnHYpoda9I_1-99" target="qhgat8wSMTNiafaL7B5G-0" edge="1">
          <mxGeometry relative="1" as="geometry" />
        </mxCell>
        <mxCell id="KEGzqHDlvnHYpoda9I_1-99" value="R" style="ellipse;whiteSpace=wrap;html=1;aspect=fixed;fontStyle=0;fillColor=#cccccc;" parent="qhgat8wSMTNiafaL7B5G-136" vertex="1">
          <mxGeometry x="24.903266932270952" width="26.23" height="26.23" as="geometry" />
        </mxCell>
        <mxCell id="qhgat8wSMTNiafaL7B5G-130" style="rounded=0;orthogonalLoop=1;jettySize=auto;html=1;exitX=0;exitY=1;exitDx=0;exitDy=0;entryX=0.5;entryY=0;entryDx=0;entryDy=0;endArrow=blockThin;endFill=1;" parent="qhgat8wSMTNiafaL7B5G-136" source="qhgat8wSMTNiafaL7B5G-0" target="qhgat8wSMTNiafaL7B5G-9" edge="1">
          <mxGeometry relative="1" as="geometry" />
        </mxCell>
        <mxCell id="qhgat8wSMTNiafaL7B5G-131" style="rounded=0;orthogonalLoop=1;jettySize=auto;html=1;exitX=1;exitY=1;exitDx=0;exitDy=0;entryX=0.5;entryY=0;entryDx=0;entryDy=0;endArrow=blockThin;endFill=1;" parent="qhgat8wSMTNiafaL7B5G-136" source="qhgat8wSMTNiafaL7B5G-0" target="qhgat8wSMTNiafaL7B5G-7" edge="1">
          <mxGeometry relative="1" as="geometry" />
        </mxCell>
        <mxCell id="qhgat8wSMTNiafaL7B5G-0" value="abc" style="ellipse;whiteSpace=wrap;html=1;aspect=fixed;fontStyle=0;fillColor=#cccccc;" parent="qhgat8wSMTNiafaL7B5G-136" vertex="1">
          <mxGeometry x="52.00039840637447" y="50.617266881028854" width="28" height="28" as="geometry" />
        </mxCell>
        <mxCell id="qhgat8wSMTNiafaL7B5G-132" style="rounded=0;orthogonalLoop=1;jettySize=auto;html=1;exitX=0;exitY=1;exitDx=0;exitDy=0;entryX=0.5;entryY=0;entryDx=0;entryDy=0;endArrow=blockThin;endFill=1;" parent="qhgat8wSMTNiafaL7B5G-136" source="qhgat8wSMTNiafaL7B5G-7" target="qhgat8wSMTNiafaL7B5G-18" edge="1">
          <mxGeometry relative="1" as="geometry" />
        </mxCell>
        <mxCell id="qhgat8wSMTNiafaL7B5G-133" style="rounded=0;orthogonalLoop=1;jettySize=auto;html=1;exitX=1;exitY=1;exitDx=0;exitDy=0;entryX=0.5;entryY=0;entryDx=0;entryDy=0;endArrow=blockThin;endFill=1;" parent="qhgat8wSMTNiafaL7B5G-136" source="qhgat8wSMTNiafaL7B5G-7" target="qhgat8wSMTNiafaL7B5G-22" edge="1">
          <mxGeometry relative="1" as="geometry" />
        </mxCell>
        <mxCell id="qhgat8wSMTNiafaL7B5G-7" value="bc" style="ellipse;whiteSpace=wrap;html=1;aspect=fixed;fontStyle=0;fillColor=#cccccc;" parent="qhgat8wSMTNiafaL7B5G-136" vertex="1">
          <mxGeometry x="77.80039840637448" y="103.09726688102887" width="28" height="28" as="geometry" />
        </mxCell>
        <mxCell id="qhgat8wSMTNiafaL7B5G-22" value="c" style="ellipse;whiteSpace=wrap;html=1;aspect=fixed;fontStyle=0;verticalAlign=bottom;" parent="qhgat8wSMTNiafaL7B5G-136" vertex="1">
          <mxGeometry x="110" y="161.08736334405137" width="16.881028938906752" height="16.881028938906752" as="geometry" />
        </mxCell>
        <mxCell id="qhgat8wSMTNiafaL7B5G-28" value="d" style="ellipse;whiteSpace=wrap;html=1;aspect=fixed;fontStyle=0;verticalAlign=middle;" parent="qhgat8wSMTNiafaL7B5G-137" vertex="1">
          <mxGeometry x="168.99673306772905" y="104.11736334405151" width="16.881028938906752" height="16.881028938906752" as="geometry" />
        </mxCell>
        <mxCell id="qhgat8wSMTNiafaL7B5G-122" style="rounded=0;orthogonalLoop=1;jettySize=auto;html=1;exitX=0;exitY=1;exitDx=0;exitDy=0;entryX=0.5;entryY=0;entryDx=0;entryDy=0;endArrow=blockThin;endFill=1;" parent="qhgat8wSMTNiafaL7B5G-137" source="qhgat8wSMTNiafaL7B5G-27" target="qhgat8wSMTNiafaL7B5G-28" edge="1">
          <mxGeometry relative="1" as="geometry" />
        </mxCell>
        <mxCell id="qhgat8wSMTNiafaL7B5G-23" value="a" style="ellipse;whiteSpace=wrap;html=1;aspect=fixed;fontStyle=0;verticalAlign=middle;" parent="qhgat8wSMTNiafaL7B5G-137" vertex="1">
          <mxGeometry x="223.0167330677291" y="209.02736334405142" width="16.881028938906752" height="16.881028938906752" as="geometry" />
        </mxCell>
        <mxCell id="qhgat8wSMTNiafaL7B5G-25" value="b" style="ellipse;whiteSpace=wrap;html=1;aspect=fixed;fontStyle=0;verticalAlign=middle;" parent="qhgat8wSMTNiafaL7B5G-137" vertex="1">
          <mxGeometry x="195.0167330677291" y="156.59736334405147" width="16.881028938906752" height="16.881028938906752" as="geometry" />
        </mxCell>
        <mxCell id="qhgat8wSMTNiafaL7B5G-123" style="rounded=0;orthogonalLoop=1;jettySize=auto;html=1;exitX=1;exitY=1;exitDx=0;exitDy=0;entryX=0.5;entryY=0;entryDx=0;entryDy=0;endArrow=blockThin;endFill=1;" parent="qhgat8wSMTNiafaL7B5G-137" source="qhgat8wSMTNiafaL7B5G-27" target="qhgat8wSMTNiafaL7B5G-30" edge="1">
          <mxGeometry relative="1" as="geometry" />
        </mxCell>
        <mxCell id="qhgat8wSMTNiafaL7B5G-27" value="R" style="ellipse;whiteSpace=wrap;html=1;aspect=fixed;fontStyle=0;fillColor=#cccccc;" parent="qhgat8wSMTNiafaL7B5G-137" vertex="1">
          <mxGeometry x="195.01999999999998" y="47.940000000000055" width="26.23" height="26.23" as="geometry" />
        </mxCell>
        <mxCell id="qhgat8wSMTNiafaL7B5G-124" style="rounded=0;orthogonalLoop=1;jettySize=auto;html=1;exitX=0;exitY=1;exitDx=0;exitDy=0;entryX=0.5;entryY=0;entryDx=0;entryDy=0;endArrow=blockThin;endFill=1;" parent="qhgat8wSMTNiafaL7B5G-137" source="qhgat8wSMTNiafaL7B5G-30" target="qhgat8wSMTNiafaL7B5G-25" edge="1">
          <mxGeometry relative="1" as="geometry" />
        </mxCell>
        <mxCell id="qhgat8wSMTNiafaL7B5G-125" style="rounded=0;orthogonalLoop=1;jettySize=auto;html=1;exitX=1;exitY=1;exitDx=0;exitDy=0;entryX=0.5;entryY=0;entryDx=0;entryDy=0;endArrow=blockThin;endFill=1;" parent="qhgat8wSMTNiafaL7B5G-137" source="qhgat8wSMTNiafaL7B5G-30" target="qhgat8wSMTNiafaL7B5G-32" edge="1">
          <mxGeometry relative="1" as="geometry" />
        </mxCell>
        <mxCell id="qhgat8wSMTNiafaL7B5G-30" value="abc" style="ellipse;whiteSpace=wrap;html=1;aspect=fixed;fontStyle=0;fillColor=#cccccc;" parent="qhgat8wSMTNiafaL7B5G-137" vertex="1">
          <mxGeometry x="222.11713147410353" y="98.55726688102891" width="28" height="28" as="geometry" />
        </mxCell>
        <mxCell id="qhgat8wSMTNiafaL7B5G-126" style="rounded=0;orthogonalLoop=1;jettySize=auto;html=1;exitX=0;exitY=1;exitDx=0;exitDy=0;entryX=0.5;entryY=0;entryDx=0;entryDy=0;endArrow=blockThin;endFill=1;" parent="qhgat8wSMTNiafaL7B5G-137" source="qhgat8wSMTNiafaL7B5G-32" target="qhgat8wSMTNiafaL7B5G-23" edge="1">
          <mxGeometry relative="1" as="geometry" />
        </mxCell>
        <mxCell id="qhgat8wSMTNiafaL7B5G-127" style="rounded=0;orthogonalLoop=1;jettySize=auto;html=1;exitX=1;exitY=1;exitDx=0;exitDy=0;entryX=0.5;entryY=0;entryDx=0;entryDy=0;endArrow=blockThin;endFill=1;" parent="qhgat8wSMTNiafaL7B5G-137" source="qhgat8wSMTNiafaL7B5G-32" target="qhgat8wSMTNiafaL7B5G-34" edge="1">
          <mxGeometry relative="1" as="geometry" />
        </mxCell>
        <mxCell id="qhgat8wSMTNiafaL7B5G-32" value="ac" style="ellipse;whiteSpace=wrap;html=1;aspect=fixed;fontStyle=0;fillColor=#cccccc;" parent="qhgat8wSMTNiafaL7B5G-137" vertex="1">
          <mxGeometry x="247.91713147410354" y="151.03726688102893" width="28" height="28" as="geometry" />
        </mxCell>
        <mxCell id="qhgat8wSMTNiafaL7B5G-34" value="c" style="ellipse;whiteSpace=wrap;html=1;aspect=fixed;fontStyle=0;verticalAlign=bottom;" parent="qhgat8wSMTNiafaL7B5G-137" vertex="1">
          <mxGeometry x="280.11673306772906" y="209.02736334405142" width="16.881028938906752" height="16.881028938906752" as="geometry" />
        </mxCell>
        <mxCell id="KEGzqHDlvnHYpoda9I_1-98" value="d" style="ellipse;whiteSpace=wrap;html=1;aspect=fixed;fontStyle=0;verticalAlign=middle;" parent="qhgat8wSMTNiafaL7B5G-137" vertex="1">
          <mxGeometry x="17.996733067729053" y="104.11736334405151" width="16.881028938906752" height="16.881028938906752" as="geometry" />
        </mxCell>
        <mxCell id="qhgat8wSMTNiafaL7B5G-128" style="rounded=0;orthogonalLoop=1;jettySize=auto;html=1;exitX=0;exitY=1;exitDx=0;exitDy=0;entryX=0.5;entryY=0;entryDx=0;entryDy=0;endArrow=blockThin;endFill=1;" parent="qhgat8wSMTNiafaL7B5G-137" source="KEGzqHDlvnHYpoda9I_1-99" target="KEGzqHDlvnHYpoda9I_1-98" edge="1">
          <mxGeometry relative="1" as="geometry" />
        </mxCell>
        <mxCell id="qhgat8wSMTNiafaL7B5G-41" value="a" style="ellipse;whiteSpace=wrap;html=1;aspect=fixed;fontStyle=0;verticalAlign=middle;" parent="qhgat8wSMTNiafaL7B5G-137" vertex="1">
          <mxGeometry x="321.99673306772905" y="104.11736334405151" width="16.881028938906752" height="16.881028938906752" as="geometry" />
        </mxCell>
        <mxCell id="qhgat8wSMTNiafaL7B5G-116" style="rounded=0;orthogonalLoop=1;jettySize=auto;html=1;exitX=0;exitY=1;exitDx=0;exitDy=0;entryX=0.5;entryY=0;entryDx=0;entryDy=0;endArrow=blockThin;endFill=1;" parent="qhgat8wSMTNiafaL7B5G-137" source="qhgat8wSMTNiafaL7B5G-40" target="qhgat8wSMTNiafaL7B5G-41" edge="1">
          <mxGeometry relative="1" as="geometry" />
        </mxCell>
        <mxCell id="qhgat8wSMTNiafaL7B5G-174" style="edgeStyle=orthogonalEdgeStyle;rounded=0;orthogonalLoop=1;jettySize=auto;html=1;exitX=1;exitY=0.5;exitDx=0;exitDy=0;entryX=0;entryY=0.5;entryDx=0;entryDy=0;endArrow=block;endFill=1;" parent="KEGzqHDlvnHYpoda9I_1-1" source="KEGzqHDlvnHYpoda9I_1-5" target="qhgat8wSMTNiafaL7B5G-53" edge="1">
          <mxGeometry relative="1" as="geometry" />
        </mxCell>
        <mxCell id="qhgat8wSMTNiafaL7B5G-175" value="" style="group" parent="KEGzqHDlvnHYpoda9I_1-1" vertex="1" connectable="0">
          <mxGeometry x="550" y="-1062.94" width="290" height="281" as="geometry" />
        </mxCell>
        <mxCell id="KEGzqHDlvnHYpoda9I_1-2" value="&lt;font style=&quot;font-size: 16px;&quot;&gt;Step 2&lt;/font&gt;" style="rounded=1;whiteSpace=wrap;html=1;" parent="qhgat8wSMTNiafaL7B5G-175" vertex="1">
          <mxGeometry x="18" width="80" height="30" as="geometry" />
        </mxCell>
        <mxCell id="qhgat8wSMTNiafaL7B5G-53" value="" style="rounded=1;whiteSpace=wrap;html=1;container=0;" parent="qhgat8wSMTNiafaL7B5G-175" vertex="1">
          <mxGeometry x="-18" y="30" width="308" height="251" as="geometry" />
        </mxCell>
        <mxCell id="BwE2QEpdmp8g6l8b1Yzs-21" style="rounded=0;orthogonalLoop=1;jettySize=auto;html=1;endArrow=none;endFill=0;elbow=vertical;curved=1;" edge="1" parent="qhgat8wSMTNiafaL7B5G-175">
          <mxGeometry relative="1" as="geometry">
            <mxPoint x="153" y="260.00000000000006" as="sourcePoint" />
            <mxPoint x="131" y="260.00000000000006" as="targetPoint" />
          </mxGeometry>
        </mxCell>
        <mxCell id="BwE2QEpdmp8g6l8b1Yzs-22" value="1" style="edgeLabel;html=1;align=center;verticalAlign=middle;resizable=0;points=[];fontColor=#FF3333;fontStyle=1" vertex="1" connectable="0" parent="BwE2QEpdmp8g6l8b1Yzs-21">
          <mxGeometry x="-0.0617" y="-2" relative="1" as="geometry">
            <mxPoint x="-2" y="2" as="offset" />
          </mxGeometry>
        </mxCell>
        <mxCell id="BwE2QEpdmp8g6l8b1Yzs-23" value="Edge frequency" style="text;html=1;align=center;verticalAlign=middle;resizable=0;points=[];autosize=1;strokeColor=none;fillColor=none;" vertex="1" parent="qhgat8wSMTNiafaL7B5G-175">
          <mxGeometry x="157" y="246.00000000000006" width="102" height="26" as="geometry" />
        </mxCell>
        <mxCell id="BwE2QEpdmp8g6l8b1Yzs-20" value="Node degree" style="text;html=1;align=center;verticalAlign=middle;resizable=0;points=[];autosize=1;strokeColor=none;fillColor=none;" vertex="1" parent="qhgat8wSMTNiafaL7B5G-175">
          <mxGeometry x="27.110000000000127" y="246" width="87" height="26" as="geometry" />
        </mxCell>
        <mxCell id="BwE2QEpdmp8g6l8b1Yzs-19" value="1" style="ellipse;whiteSpace=wrap;html=1;aspect=fixed;fillColor=#d5e8d4;strokeColor=#82b366;fontSize=10;" vertex="1" parent="qhgat8wSMTNiafaL7B5G-175">
          <mxGeometry x="11.999999999999886" y="251.97000000000003" width="14.06" height="14.06" as="geometry" />
        </mxCell>
        <mxCell id="BwE2QEpdmp8g6l8b1Yzs-29" value="Leaf node" style="text;html=1;align=center;verticalAlign=middle;resizable=0;points=[];autosize=1;strokeColor=none;fillColor=none;" vertex="1" parent="qhgat8wSMTNiafaL7B5G-175">
          <mxGeometry x="-321.14" y="246.00000000000009" width="71" height="26" as="geometry" />
        </mxCell>
        <mxCell id="BwE2QEpdmp8g6l8b1Yzs-28" value="x" style="ellipse;whiteSpace=wrap;html=1;aspect=fixed;fontStyle=0;verticalAlign=bottom;" vertex="1" parent="qhgat8wSMTNiafaL7B5G-175">
          <mxGeometry x="-339.0032669322709" y="250.55736334405148" width="16.881028938906752" height="16.881028938906752" as="geometry" />
        </mxCell>
        <mxCell id="BwE2QEpdmp8g6l8b1Yzs-27" value="Named internal node" style="text;html=1;align=center;verticalAlign=middle;resizable=0;points=[];autosize=1;strokeColor=none;fillColor=none;" vertex="1" parent="qhgat8wSMTNiafaL7B5G-175">
          <mxGeometry x="-484.77" y="246.23000000000008" width="129" height="26" as="geometry" />
        </mxCell>
        <mxCell id="BwE2QEpdmp8g6l8b1Yzs-26" value="xy" style="ellipse;whiteSpace=wrap;html=1;aspect=fixed;fontStyle=0;fillColor=#cccccc;verticalAlign=middle;align=center;" vertex="1" parent="qhgat8wSMTNiafaL7B5G-175">
          <mxGeometry x="-511" y="246.00000000000006" width="26.23" height="26.23" as="geometry" />
        </mxCell>
        <mxCell id="BwE2QEpdmp8g6l8b1Yzs-76" value="" style="group" vertex="1" connectable="0" parent="qhgat8wSMTNiafaL7B5G-175">
          <mxGeometry x="20" y="51.88736334405144" width="230.1200000000001" height="172.11263665594862" as="geometry" />
        </mxCell>
        <mxCell id="qhgat8wSMTNiafaL7B5G-113" style="edgeStyle=orthogonalEdgeStyle;rounded=0;orthogonalLoop=1;jettySize=auto;html=1;entryX=1;entryY=0.5;entryDx=0;entryDy=0;endArrow=none;endFill=0;" parent="BwE2QEpdmp8g6l8b1Yzs-76" source="qhgat8wSMTNiafaL7B5G-103" target="qhgat8wSMTNiafaL7B5G-112" edge="1">
          <mxGeometry relative="1" as="geometry" />
        </mxCell>
        <mxCell id="qhgat8wSMTNiafaL7B5G-170" value="1" style="edgeLabel;html=1;align=center;verticalAlign=middle;resizable=0;points=[];fontColor=#FF3333;fontStyle=1;container=0;" parent="qhgat8wSMTNiafaL7B5G-113" vertex="1" connectable="0">
          <mxGeometry x="-0.0245" y="-1" relative="1" as="geometry">
            <mxPoint as="offset" />
          </mxGeometry>
        </mxCell>
        <mxCell id="qhgat8wSMTNiafaL7B5G-140" style="rounded=0;orthogonalLoop=1;jettySize=auto;html=1;exitX=1;exitY=0.5;exitDx=0;exitDy=0;entryX=0;entryY=0.5;entryDx=0;entryDy=0;endArrow=none;endFill=0;" parent="BwE2QEpdmp8g6l8b1Yzs-76" source="qhgat8wSMTNiafaL7B5G-103" target="qhgat8wSMTNiafaL7B5G-138" edge="1">
          <mxGeometry relative="1" as="geometry" />
        </mxCell>
        <mxCell id="qhgat8wSMTNiafaL7B5G-171" value="2" style="edgeLabel;html=1;align=center;verticalAlign=middle;resizable=0;points=[];fontColor=#FF3333;fontStyle=1;container=0;" parent="qhgat8wSMTNiafaL7B5G-140" vertex="1" connectable="0">
          <mxGeometry x="-0.014" y="-1" relative="1" as="geometry">
            <mxPoint y="-2" as="offset" />
          </mxGeometry>
        </mxCell>
        <mxCell id="qhgat8wSMTNiafaL7B5G-151" style="rounded=0;orthogonalLoop=1;jettySize=auto;html=1;exitX=1;exitY=0;exitDx=0;exitDy=0;entryX=0;entryY=1;entryDx=0;entryDy=0;endArrow=none;endFill=0;" parent="BwE2QEpdmp8g6l8b1Yzs-76" source="qhgat8wSMTNiafaL7B5G-103" target="qhgat8wSMTNiafaL7B5G-149" edge="1">
          <mxGeometry relative="1" as="geometry" />
        </mxCell>
        <mxCell id="qhgat8wSMTNiafaL7B5G-159" value="1" style="edgeLabel;html=1;align=center;verticalAlign=middle;resizable=0;points=[];fontColor=#FF3333;fontStyle=1;container=0;" parent="qhgat8wSMTNiafaL7B5G-151" vertex="1" connectable="0">
          <mxGeometry x="-0.0657" relative="1" as="geometry">
            <mxPoint y="-2" as="offset" />
          </mxGeometry>
        </mxCell>
        <mxCell id="qhgat8wSMTNiafaL7B5G-155" style="rounded=0;orthogonalLoop=1;jettySize=auto;html=1;exitX=0;exitY=0;exitDx=0;exitDy=0;entryX=1;entryY=1;entryDx=0;entryDy=0;endArrow=none;endFill=0;" parent="BwE2QEpdmp8g6l8b1Yzs-76" source="qhgat8wSMTNiafaL7B5G-103" target="qhgat8wSMTNiafaL7B5G-153" edge="1">
          <mxGeometry relative="1" as="geometry" />
        </mxCell>
        <mxCell id="qhgat8wSMTNiafaL7B5G-169" value="2" style="edgeLabel;html=1;align=center;verticalAlign=middle;resizable=0;points=[];fontColor=#FF3333;fontStyle=1;container=0;" parent="qhgat8wSMTNiafaL7B5G-155" vertex="1" connectable="0">
          <mxGeometry x="0.0483" relative="1" as="geometry">
            <mxPoint as="offset" />
          </mxGeometry>
        </mxCell>
        <mxCell id="qhgat8wSMTNiafaL7B5G-103" value="R" style="ellipse;whiteSpace=wrap;html=1;aspect=fixed;fontStyle=0;fillColor=#cccccc;container=0;" parent="BwE2QEpdmp8g6l8b1Yzs-76" vertex="1">
          <mxGeometry x="70.8900000000001" y="63.94263665594872" width="26.23" height="26.23" as="geometry" />
        </mxCell>
        <mxCell id="qhgat8wSMTNiafaL7B5G-144" style="rounded=0;orthogonalLoop=1;jettySize=auto;html=1;exitX=1;exitY=1;exitDx=0;exitDy=0;entryX=0;entryY=0.5;entryDx=0;entryDy=0;endArrow=none;endFill=0;elbow=vertical;curved=1;" parent="BwE2QEpdmp8g6l8b1Yzs-76" source="qhgat8wSMTNiafaL7B5G-112" target="qhgat8wSMTNiafaL7B5G-142" edge="1">
          <mxGeometry relative="1" as="geometry" />
        </mxCell>
        <mxCell id="qhgat8wSMTNiafaL7B5G-166" value="1" style="edgeLabel;html=1;align=center;verticalAlign=middle;resizable=0;points=[];fontColor=#FF3333;fontStyle=1;container=0;" parent="qhgat8wSMTNiafaL7B5G-144" vertex="1" connectable="0">
          <mxGeometry x="-0.0617" y="-2" relative="1" as="geometry">
            <mxPoint x="8" y="2" as="offset" />
          </mxGeometry>
        </mxCell>
        <mxCell id="qhgat8wSMTNiafaL7B5G-154" style="rounded=0;orthogonalLoop=1;jettySize=auto;html=1;exitX=1;exitY=0;exitDx=0;exitDy=0;entryX=0;entryY=1;entryDx=0;entryDy=0;endArrow=none;endFill=0;" parent="BwE2QEpdmp8g6l8b1Yzs-76" source="qhgat8wSMTNiafaL7B5G-112" target="qhgat8wSMTNiafaL7B5G-153" edge="1">
          <mxGeometry relative="1" as="geometry" />
        </mxCell>
        <mxCell id="qhgat8wSMTNiafaL7B5G-168" value="1" style="edgeLabel;html=1;align=center;verticalAlign=middle;resizable=0;points=[];fontColor=#FF3333;fontStyle=1;container=0;" parent="qhgat8wSMTNiafaL7B5G-154" vertex="1" connectable="0">
          <mxGeometry x="0.0053" relative="1" as="geometry">
            <mxPoint as="offset" />
          </mxGeometry>
        </mxCell>
        <mxCell id="qhgat8wSMTNiafaL7B5G-112" value="bcd" style="ellipse;whiteSpace=wrap;html=1;aspect=fixed;fontStyle=0;fillColor=#cccccc;container=0;" parent="BwE2QEpdmp8g6l8b1Yzs-76" vertex="1">
          <mxGeometry x="3.8900000000001" y="63.94263665594872" width="26.23" height="26.23" as="geometry" />
        </mxCell>
        <mxCell id="qhgat8wSMTNiafaL7B5G-141" style="rounded=0;orthogonalLoop=1;jettySize=auto;html=1;exitX=1;exitY=0.5;exitDx=0;exitDy=0;entryX=0;entryY=0.5;entryDx=0;entryDy=0;endArrow=none;endFill=0;" parent="BwE2QEpdmp8g6l8b1Yzs-76" source="qhgat8wSMTNiafaL7B5G-138" target="qhgat8wSMTNiafaL7B5G-139" edge="1">
          <mxGeometry relative="1" as="geometry" />
        </mxCell>
        <mxCell id="qhgat8wSMTNiafaL7B5G-172" value="1" style="edgeLabel;html=1;align=center;verticalAlign=middle;resizable=0;points=[];fontColor=#FF3333;fontStyle=1;container=0;" parent="qhgat8wSMTNiafaL7B5G-141" vertex="1" connectable="0">
          <mxGeometry x="-0.0231" relative="1" as="geometry">
            <mxPoint y="-1" as="offset" />
          </mxGeometry>
        </mxCell>
        <mxCell id="qhgat8wSMTNiafaL7B5G-145" style="edgeStyle=orthogonalEdgeStyle;rounded=0;orthogonalLoop=1;jettySize=auto;html=1;exitX=0.5;exitY=1;exitDx=0;exitDy=0;entryX=0.5;entryY=0;entryDx=0;entryDy=0;endArrow=none;endFill=0;" parent="BwE2QEpdmp8g6l8b1Yzs-76" source="qhgat8wSMTNiafaL7B5G-138" target="qhgat8wSMTNiafaL7B5G-142" edge="1">
          <mxGeometry relative="1" as="geometry" />
        </mxCell>
        <mxCell id="qhgat8wSMTNiafaL7B5G-167" value="1" style="edgeLabel;html=1;align=center;verticalAlign=middle;resizable=0;points=[];fontColor=#FF3333;fontStyle=1;container=0;" parent="qhgat8wSMTNiafaL7B5G-145" vertex="1" connectable="0">
          <mxGeometry x="-0.0894" y="-1" relative="1" as="geometry">
            <mxPoint y="1" as="offset" />
          </mxGeometry>
        </mxCell>
        <mxCell id="qhgat8wSMTNiafaL7B5G-150" style="rounded=0;orthogonalLoop=1;jettySize=auto;html=1;exitX=0.5;exitY=0;exitDx=0;exitDy=0;entryX=0.5;entryY=1;entryDx=0;entryDy=0;endArrow=none;endFill=0;" parent="BwE2QEpdmp8g6l8b1Yzs-76" source="qhgat8wSMTNiafaL7B5G-138" target="qhgat8wSMTNiafaL7B5G-149" edge="1">
          <mxGeometry relative="1" as="geometry" />
        </mxCell>
        <mxCell id="qhgat8wSMTNiafaL7B5G-161" value="1" style="edgeLabel;html=1;align=center;verticalAlign=middle;resizable=0;points=[];fontColor=#FF3333;fontStyle=1;container=0;" parent="qhgat8wSMTNiafaL7B5G-150" vertex="1" connectable="0">
          <mxGeometry x="-0.0433" y="-2" relative="1" as="geometry">
            <mxPoint x="-3" as="offset" />
          </mxGeometry>
        </mxCell>
        <mxCell id="qhgat8wSMTNiafaL7B5G-157" style="rounded=0;orthogonalLoop=1;jettySize=auto;html=1;exitX=1;exitY=1;exitDx=0;exitDy=0;entryX=0;entryY=0;entryDx=0;entryDy=0;endArrow=none;endFill=0;" parent="BwE2QEpdmp8g6l8b1Yzs-76" source="qhgat8wSMTNiafaL7B5G-138" target="qhgat8wSMTNiafaL7B5G-156" edge="1">
          <mxGeometry relative="1" as="geometry" />
        </mxCell>
        <mxCell id="qhgat8wSMTNiafaL7B5G-162" value="1" style="edgeLabel;html=1;align=center;verticalAlign=middle;resizable=0;points=[];fontColor=#FF3333;fontStyle=1;container=0;" parent="qhgat8wSMTNiafaL7B5G-157" vertex="1" connectable="0">
          <mxGeometry x="0.0028" y="-2" relative="1" as="geometry">
            <mxPoint x="1" y="-1" as="offset" />
          </mxGeometry>
        </mxCell>
        <mxCell id="qhgat8wSMTNiafaL7B5G-138" value="abc" style="ellipse;whiteSpace=wrap;html=1;aspect=fixed;fontStyle=0;fillColor=#cccccc;container=0;" parent="BwE2QEpdmp8g6l8b1Yzs-76" vertex="1">
          <mxGeometry x="135.66000000000008" y="63.94263665594872" width="26.23" height="26.23" as="geometry" />
        </mxCell>
        <mxCell id="qhgat8wSMTNiafaL7B5G-147" style="rounded=0;orthogonalLoop=1;jettySize=auto;html=1;exitX=0.5;exitY=1;exitDx=0;exitDy=0;entryX=0.5;entryY=0;entryDx=0;entryDy=0;endArrow=none;endFill=0;" parent="BwE2QEpdmp8g6l8b1Yzs-76" source="qhgat8wSMTNiafaL7B5G-139" target="qhgat8wSMTNiafaL7B5G-146" edge="1">
          <mxGeometry relative="1" as="geometry" />
        </mxCell>
        <mxCell id="qhgat8wSMTNiafaL7B5G-164" value="1" style="edgeLabel;html=1;align=center;verticalAlign=middle;resizable=0;points=[];fontColor=#FF3333;fontStyle=1;container=0;" parent="qhgat8wSMTNiafaL7B5G-147" vertex="1" connectable="0">
          <mxGeometry x="0.0002" relative="1" as="geometry">
            <mxPoint x="-1" y="-3" as="offset" />
          </mxGeometry>
        </mxCell>
        <mxCell id="qhgat8wSMTNiafaL7B5G-152" style="rounded=0;orthogonalLoop=1;jettySize=auto;html=1;exitX=0;exitY=0;exitDx=0;exitDy=0;entryX=1;entryY=1;entryDx=0;entryDy=0;endArrow=none;endFill=0;" parent="BwE2QEpdmp8g6l8b1Yzs-76" source="qhgat8wSMTNiafaL7B5G-139" target="qhgat8wSMTNiafaL7B5G-149" edge="1">
          <mxGeometry relative="1" as="geometry" />
        </mxCell>
        <mxCell id="qhgat8wSMTNiafaL7B5G-160" value="1" style="edgeLabel;html=1;align=center;verticalAlign=middle;resizable=0;points=[];fontColor=#FF3333;fontStyle=1;container=0;" parent="qhgat8wSMTNiafaL7B5G-152" vertex="1" connectable="0">
          <mxGeometry x="0.0685" relative="1" as="geometry">
            <mxPoint x="2" y="2" as="offset" />
          </mxGeometry>
        </mxCell>
        <mxCell id="qhgat8wSMTNiafaL7B5G-139" value="ac" style="ellipse;whiteSpace=wrap;html=1;aspect=fixed;fontStyle=0;fillColor=#cccccc;container=0;" parent="BwE2QEpdmp8g6l8b1Yzs-76" vertex="1">
          <mxGeometry x="203.8900000000001" y="63.94263665594872" width="26.23" height="26.23" as="geometry" />
        </mxCell>
        <mxCell id="qhgat8wSMTNiafaL7B5G-148" style="rounded=0;orthogonalLoop=1;jettySize=auto;html=1;exitX=1;exitY=0.5;exitDx=0;exitDy=0;entryX=0;entryY=0.5;entryDx=0;entryDy=0;endArrow=none;endFill=0;" parent="BwE2QEpdmp8g6l8b1Yzs-76" source="qhgat8wSMTNiafaL7B5G-142" target="qhgat8wSMTNiafaL7B5G-146" edge="1">
          <mxGeometry relative="1" as="geometry" />
        </mxCell>
        <mxCell id="qhgat8wSMTNiafaL7B5G-165" value="2" style="edgeLabel;html=1;align=center;verticalAlign=middle;resizable=0;points=[];fontColor=#FF3333;fontStyle=1;container=0;" parent="qhgat8wSMTNiafaL7B5G-148" vertex="1" connectable="0">
          <mxGeometry x="0.0994" relative="1" as="geometry">
            <mxPoint as="offset" />
          </mxGeometry>
        </mxCell>
        <mxCell id="qhgat8wSMTNiafaL7B5G-158" style="rounded=0;orthogonalLoop=1;jettySize=auto;html=1;exitX=1;exitY=0;exitDx=0;exitDy=0;entryX=0;entryY=1;entryDx=0;entryDy=0;endArrow=none;endFill=0;" parent="BwE2QEpdmp8g6l8b1Yzs-76" source="qhgat8wSMTNiafaL7B5G-142" target="qhgat8wSMTNiafaL7B5G-156" edge="1">
          <mxGeometry relative="1" as="geometry" />
        </mxCell>
        <mxCell id="qhgat8wSMTNiafaL7B5G-163" value="2" style="edgeLabel;html=1;align=center;verticalAlign=middle;resizable=0;points=[];fontColor=#FF3333;fontStyle=1;container=0;" parent="qhgat8wSMTNiafaL7B5G-158" vertex="1" connectable="0">
          <mxGeometry x="0.2006" y="1" relative="1" as="geometry">
            <mxPoint x="-1" y="1" as="offset" />
          </mxGeometry>
        </mxCell>
        <mxCell id="qhgat8wSMTNiafaL7B5G-142" value="bc" style="ellipse;whiteSpace=wrap;html=1;aspect=fixed;fontStyle=0;fillColor=#cccccc;container=0;" parent="BwE2QEpdmp8g6l8b1Yzs-76" vertex="1">
          <mxGeometry x="135.66000000000008" y="140.00263665594866" width="26.23" height="26.23" as="geometry" />
        </mxCell>
        <mxCell id="qhgat8wSMTNiafaL7B5G-146" value="c" style="ellipse;whiteSpace=wrap;html=1;aspect=fixed;fontStyle=0;verticalAlign=bottom;align=center;container=0;" parent="BwE2QEpdmp8g6l8b1Yzs-76" vertex="1">
          <mxGeometry x="208.56673306772916" y="144.68000000000006" width="16.881028938906752" height="16.881028938906752" as="geometry" />
        </mxCell>
        <mxCell id="qhgat8wSMTNiafaL7B5G-149" value="a" style="ellipse;whiteSpace=wrap;html=1;aspect=fixed;fontStyle=0;verticalAlign=middle;align=center;container=0;" parent="BwE2QEpdmp8g6l8b1Yzs-76" vertex="1">
          <mxGeometry x="140.33673306772914" width="16.881028938906752" height="16.881028938906752" as="geometry" />
        </mxCell>
        <mxCell id="qhgat8wSMTNiafaL7B5G-153" value="d" style="ellipse;whiteSpace=wrap;html=1;aspect=fixed;fontStyle=0;verticalAlign=bottom;container=0;" parent="BwE2QEpdmp8g6l8b1Yzs-76" vertex="1">
          <mxGeometry x="43.8867330677291" width="16.881028938906752" height="16.881028938906752" as="geometry" />
        </mxCell>
        <mxCell id="qhgat8wSMTNiafaL7B5G-156" value="b" style="ellipse;whiteSpace=wrap;html=1;aspect=fixed;fontStyle=0;verticalAlign=bottom;container=0;" parent="BwE2QEpdmp8g6l8b1Yzs-76" vertex="1">
          <mxGeometry x="176.8867330677291" y="106" width="16.881028938906752" height="16.881028938906752" as="geometry" />
        </mxCell>
        <mxCell id="BwE2QEpdmp8g6l8b1Yzs-0" value="&lt;font style=&quot;font-size: 10px;&quot;&gt;1&lt;/font&gt;" style="ellipse;whiteSpace=wrap;html=1;aspect=fixed;fillColor=#d5e8d4;strokeColor=#82b366;fontSize=10;container=0;" vertex="1" parent="BwE2QEpdmp8g6l8b1Yzs-76">
          <mxGeometry y="83.05263665594856" width="14.06" height="14.06" as="geometry" />
        </mxCell>
        <mxCell id="BwE2QEpdmp8g6l8b1Yzs-1" value="0" style="ellipse;whiteSpace=wrap;html=1;aspect=fixed;fillColor=#d5e8d4;strokeColor=#82b366;fontSize=10;container=0;" vertex="1" parent="BwE2QEpdmp8g6l8b1Yzs-76">
          <mxGeometry x="67.99999999999993" y="82.05263665594862" width="14.06" height="14.06" as="geometry" />
        </mxCell>
        <mxCell id="BwE2QEpdmp8g6l8b1Yzs-2" value="2" style="ellipse;whiteSpace=wrap;html=1;aspect=fixed;fillColor=#d5e8d4;strokeColor=#82b366;fontSize=10;container=0;" vertex="1" parent="BwE2QEpdmp8g6l8b1Yzs-76">
          <mxGeometry x="131.9999999999999" y="82.05263665594862" width="14.06" height="14.06" as="geometry" />
        </mxCell>
        <mxCell id="BwE2QEpdmp8g6l8b1Yzs-3" value="1" style="ellipse;whiteSpace=wrap;html=1;aspect=fixed;fillColor=#d5e8d4;strokeColor=#82b366;fontSize=10;container=0;" vertex="1" parent="BwE2QEpdmp8g6l8b1Yzs-76">
          <mxGeometry x="199.9999999999999" y="82.05263665594862" width="14.06" height="14.06" as="geometry" />
        </mxCell>
        <mxCell id="BwE2QEpdmp8g6l8b1Yzs-4" value="3" style="ellipse;whiteSpace=wrap;html=1;aspect=fixed;fillColor=#d5e8d4;strokeColor=#82b366;fontSize=10;container=0;" vertex="1" parent="BwE2QEpdmp8g6l8b1Yzs-76">
          <mxGeometry x="131.9999999999999" y="158.05263665594862" width="14.06" height="14.06" as="geometry" />
        </mxCell>
        <mxCell id="qhgat8wSMTNiafaL7B5G-217" style="edgeStyle=orthogonalEdgeStyle;rounded=0;orthogonalLoop=1;jettySize=auto;html=1;exitX=0.5;exitY=1;exitDx=0;exitDy=0;endArrow=block;endFill=1;" parent="KEGzqHDlvnHYpoda9I_1-1" source="qhgat8wSMTNiafaL7B5G-53" edge="1">
          <mxGeometry relative="1" as="geometry">
            <mxPoint x="686" y="-709" as="targetPoint" />
          </mxGeometry>
        </mxCell>
        <mxCell id="qhgat8wSMTNiafaL7B5G-250" value="" style="group" parent="KEGzqHDlvnHYpoda9I_1-1" vertex="1" connectable="0">
          <mxGeometry x="10" y="-738" width="180" height="250" as="geometry" />
        </mxCell>
        <mxCell id="qhgat8wSMTNiafaL7B5G-251" value="&lt;font style=&quot;font-size: 16px;&quot;&gt;Step 5&lt;/font&gt;" style="rounded=1;whiteSpace=wrap;html=1;" parent="qhgat8wSMTNiafaL7B5G-250" vertex="1">
          <mxGeometry x="19.79" width="80" height="30" as="geometry" />
        </mxCell>
        <mxCell id="qhgat8wSMTNiafaL7B5G-252" value="" style="rounded=1;whiteSpace=wrap;html=1;container=0;" parent="qhgat8wSMTNiafaL7B5G-250" vertex="1">
          <mxGeometry y="30" width="180" height="220" as="geometry" />
        </mxCell>
        <mxCell id="qhgat8wSMTNiafaL7B5G-285" value="d" style="ellipse;whiteSpace=wrap;html=1;aspect=fixed;fontStyle=0;verticalAlign=middle;" parent="qhgat8wSMTNiafaL7B5G-250" vertex="1">
          <mxGeometry x="22.996733067729057" y="107.19736334405144" width="16.881028938906752" height="16.881028938906752" as="geometry" />
        </mxCell>
        <mxCell id="qhgat8wSMTNiafaL7B5G-282" style="rounded=0;orthogonalLoop=1;jettySize=auto;html=1;exitX=0;exitY=1;exitDx=0;exitDy=0;entryX=0.5;entryY=0;entryDx=0;entryDy=0;endArrow=blockThin;endFill=1;" parent="qhgat8wSMTNiafaL7B5G-250" source="qhgat8wSMTNiafaL7B5G-284" target="qhgat8wSMTNiafaL7B5G-285" edge="1">
          <mxGeometry relative="1" as="geometry" />
        </mxCell>
        <mxCell id="qhgat8wSMTNiafaL7B5G-280" value="b" style="ellipse;whiteSpace=wrap;html=1;aspect=fixed;fontStyle=0;verticalAlign=middle;" parent="qhgat8wSMTNiafaL7B5G-250" vertex="1">
          <mxGeometry x="77.68673306772907" y="212.10736334405135" width="16.881028938906752" height="16.881028938906752" as="geometry" />
        </mxCell>
        <mxCell id="qhgat8wSMTNiafaL7B5G-281" value="a" style="ellipse;whiteSpace=wrap;html=1;aspect=fixed;fontStyle=0;verticalAlign=middle;" parent="qhgat8wSMTNiafaL7B5G-250" vertex="1">
          <mxGeometry x="51.45673306772906" y="159.6773633440514" width="16.881028938906752" height="16.881028938906752" as="geometry" />
        </mxCell>
        <mxCell id="qhgat8wSMTNiafaL7B5G-283" style="rounded=0;orthogonalLoop=1;jettySize=auto;html=1;exitX=1;exitY=1;exitDx=0;exitDy=0;entryX=0.5;entryY=0;entryDx=0;entryDy=0;endArrow=blockThin;endFill=1;" parent="qhgat8wSMTNiafaL7B5G-250" source="qhgat8wSMTNiafaL7B5G-284" target="qhgat8wSMTNiafaL7B5G-288" edge="1">
          <mxGeometry relative="1" as="geometry" />
        </mxCell>
        <mxCell id="qhgat8wSMTNiafaL7B5G-303" style="rounded=0;orthogonalLoop=1;jettySize=auto;html=1;exitX=0.5;exitY=1;exitDx=0;exitDy=0;entryX=0.5;entryY=0;entryDx=0;entryDy=0;endArrow=none;endFill=0;fillColor=#f8cecc;strokeColor=#b85450;dashed=1;" parent="qhgat8wSMTNiafaL7B5G-250" source="qhgat8wSMTNiafaL7B5G-284" target="qhgat8wSMTNiafaL7B5G-302" edge="1">
          <mxGeometry relative="1" as="geometry" />
        </mxCell>
        <mxCell id="qhgat8wSMTNiafaL7B5G-284" value="R" style="ellipse;whiteSpace=wrap;html=1;aspect=fixed;fontStyle=0;fillColor=#cccccc;" parent="qhgat8wSMTNiafaL7B5G-250" vertex="1">
          <mxGeometry x="51.46000000000001" y="51.01999999999998" width="26.23" height="26.23" as="geometry" />
        </mxCell>
        <mxCell id="qhgat8wSMTNiafaL7B5G-286" style="rounded=0;orthogonalLoop=1;jettySize=auto;html=1;exitX=0;exitY=1;exitDx=0;exitDy=0;entryX=0.5;entryY=0;entryDx=0;entryDy=0;endArrow=blockThin;endFill=1;" parent="qhgat8wSMTNiafaL7B5G-250" source="qhgat8wSMTNiafaL7B5G-288" target="qhgat8wSMTNiafaL7B5G-281" edge="1">
          <mxGeometry relative="1" as="geometry" />
        </mxCell>
        <mxCell id="qhgat8wSMTNiafaL7B5G-287" style="rounded=0;orthogonalLoop=1;jettySize=auto;html=1;exitX=1;exitY=1;exitDx=0;exitDy=0;entryX=0.5;entryY=0;entryDx=0;entryDy=0;endArrow=blockThin;endFill=1;" parent="qhgat8wSMTNiafaL7B5G-250" source="qhgat8wSMTNiafaL7B5G-288" target="qhgat8wSMTNiafaL7B5G-291" edge="1">
          <mxGeometry relative="1" as="geometry" />
        </mxCell>
        <mxCell id="qhgat8wSMTNiafaL7B5G-288" value="abc" style="ellipse;whiteSpace=wrap;html=1;aspect=fixed;fontStyle=0;fillColor=#cccccc;" parent="qhgat8wSMTNiafaL7B5G-250" vertex="1">
          <mxGeometry x="78.55713147410353" y="101.63726688102884" width="28" height="28" as="geometry" />
        </mxCell>
        <mxCell id="qhgat8wSMTNiafaL7B5G-289" style="rounded=0;orthogonalLoop=1;jettySize=auto;html=1;exitX=0;exitY=1;exitDx=0;exitDy=0;entryX=0.5;entryY=0;entryDx=0;entryDy=0;endArrow=blockThin;endFill=1;" parent="qhgat8wSMTNiafaL7B5G-250" source="qhgat8wSMTNiafaL7B5G-291" target="qhgat8wSMTNiafaL7B5G-280" edge="1">
          <mxGeometry relative="1" as="geometry" />
        </mxCell>
        <mxCell id="qhgat8wSMTNiafaL7B5G-290" style="rounded=0;orthogonalLoop=1;jettySize=auto;html=1;exitX=1;exitY=1;exitDx=0;exitDy=0;entryX=0.5;entryY=0;entryDx=0;entryDy=0;endArrow=blockThin;endFill=1;" parent="qhgat8wSMTNiafaL7B5G-250" source="qhgat8wSMTNiafaL7B5G-291" target="qhgat8wSMTNiafaL7B5G-292" edge="1">
          <mxGeometry relative="1" as="geometry" />
        </mxCell>
        <mxCell id="qhgat8wSMTNiafaL7B5G-291" value="bc" style="ellipse;whiteSpace=wrap;html=1;aspect=fixed;fontStyle=0;fillColor=#cccccc;" parent="qhgat8wSMTNiafaL7B5G-250" vertex="1">
          <mxGeometry x="104.35713147410354" y="154.11726688102885" width="28" height="28" as="geometry" />
        </mxCell>
        <mxCell id="qhgat8wSMTNiafaL7B5G-292" value="c" style="ellipse;whiteSpace=wrap;html=1;aspect=fixed;fontStyle=0;verticalAlign=bottom;" parent="qhgat8wSMTNiafaL7B5G-250" vertex="1">
          <mxGeometry x="136.55673306772906" y="212.10736334405135" width="16.881028938906752" height="16.881028938906752" as="geometry" />
        </mxCell>
        <mxCell id="qhgat8wSMTNiafaL7B5G-302" value="a" style="ellipse;whiteSpace=wrap;html=1;aspect=fixed;fontStyle=0;verticalAlign=bottom;fillColor=#f8cecc;strokeColor=#b85450;" parent="qhgat8wSMTNiafaL7B5G-250" vertex="1">
          <mxGeometry x="51.456733067729054" y="107.19736334405138" width="16.881028938906752" height="16.881028938906752" as="geometry" />
        </mxCell>
        <mxCell id="qhgat8wSMTNiafaL7B5G-177" value="&lt;font style=&quot;font-size: 16px;&quot;&gt;Step 3&lt;/font&gt;" style="rounded=1;whiteSpace=wrap;html=1;" parent="KEGzqHDlvnHYpoda9I_1-1" vertex="1">
          <mxGeometry x="581.89" y="-738" width="80" height="30" as="geometry" />
        </mxCell>
        <mxCell id="qhgat8wSMTNiafaL7B5G-293" style="edgeStyle=orthogonalEdgeStyle;rounded=0;orthogonalLoop=1;jettySize=auto;html=1;exitX=0;exitY=0.5;exitDx=0;exitDy=0;entryX=1;entryY=0.5;entryDx=0;entryDy=0;endArrow=block;endFill=1;" parent="KEGzqHDlvnHYpoda9I_1-1" source="qhgat8wSMTNiafaL7B5G-178" target="qhgat8wSMTNiafaL7B5G-223" edge="1">
          <mxGeometry relative="1" as="geometry" />
        </mxCell>
        <mxCell id="qhgat8wSMTNiafaL7B5G-294" style="edgeStyle=orthogonalEdgeStyle;rounded=0;orthogonalLoop=1;jettySize=auto;html=1;exitX=0;exitY=0.5;exitDx=0;exitDy=0;entryX=1;entryY=0.5;entryDx=0;entryDy=0;endArrow=block;endFill=1;" parent="KEGzqHDlvnHYpoda9I_1-1" source="qhgat8wSMTNiafaL7B5G-223" target="qhgat8wSMTNiafaL7B5G-252" edge="1">
          <mxGeometry relative="1" as="geometry" />
        </mxCell>
        <mxCell id="qhgat8wSMTNiafaL7B5G-222" value="&lt;font style=&quot;font-size: 16px;&quot;&gt;Step 4&lt;/font&gt;" style="rounded=1;whiteSpace=wrap;html=1;" parent="KEGzqHDlvnHYpoda9I_1-1" vertex="1">
          <mxGeometry x="261.89" y="-738" width="80" height="30" as="geometry" />
        </mxCell>
        <mxCell id="qhgat8wSMTNiafaL7B5G-223" value="" style="rounded=1;whiteSpace=wrap;html=1;container=0;" parent="KEGzqHDlvnHYpoda9I_1-1" vertex="1">
          <mxGeometry x="230" y="-708" width="290" height="220" as="geometry" />
        </mxCell>
        <mxCell id="BwE2QEpdmp8g6l8b1Yzs-33" style="edgeStyle=orthogonalEdgeStyle;rounded=0;orthogonalLoop=1;jettySize=auto;html=1;entryX=1;entryY=0.5;entryDx=0;entryDy=0;endArrow=none;endFill=0;" edge="1" parent="KEGzqHDlvnHYpoda9I_1-1" source="BwE2QEpdmp8g6l8b1Yzs-41" target="BwE2QEpdmp8g6l8b1Yzs-46">
          <mxGeometry relative="1" as="geometry" />
        </mxCell>
        <mxCell id="BwE2QEpdmp8g6l8b1Yzs-34" value="1" style="edgeLabel;html=1;align=center;verticalAlign=middle;resizable=0;points=[];fontColor=#FF3333;fontStyle=1" vertex="1" connectable="0" parent="BwE2QEpdmp8g6l8b1Yzs-33">
          <mxGeometry x="-0.0245" y="-1" relative="1" as="geometry">
            <mxPoint as="offset" />
          </mxGeometry>
        </mxCell>
        <mxCell id="BwE2QEpdmp8g6l8b1Yzs-35" style="rounded=0;orthogonalLoop=1;jettySize=auto;html=1;exitX=1;exitY=0.5;exitDx=0;exitDy=0;entryX=0;entryY=0.5;entryDx=0;entryDy=0;endArrow=none;endFill=0;" edge="1" parent="KEGzqHDlvnHYpoda9I_1-1" source="BwE2QEpdmp8g6l8b1Yzs-41" target="BwE2QEpdmp8g6l8b1Yzs-55">
          <mxGeometry relative="1" as="geometry" />
        </mxCell>
        <mxCell id="BwE2QEpdmp8g6l8b1Yzs-36" value="2" style="edgeLabel;html=1;align=center;verticalAlign=middle;resizable=0;points=[];fontColor=#FF3333;fontStyle=1" vertex="1" connectable="0" parent="BwE2QEpdmp8g6l8b1Yzs-35">
          <mxGeometry x="-0.014" y="-1" relative="1" as="geometry">
            <mxPoint y="-2" as="offset" />
          </mxGeometry>
        </mxCell>
        <mxCell id="BwE2QEpdmp8g6l8b1Yzs-37" style="rounded=0;orthogonalLoop=1;jettySize=auto;html=1;exitX=1;exitY=0;exitDx=0;exitDy=0;entryX=0;entryY=1;entryDx=0;entryDy=0;endArrow=none;endFill=0;fillColor=#f8cecc;strokeColor=#b85450;dashed=1;" edge="1" parent="KEGzqHDlvnHYpoda9I_1-1" source="BwE2QEpdmp8g6l8b1Yzs-41" target="BwE2QEpdmp8g6l8b1Yzs-67">
          <mxGeometry relative="1" as="geometry" />
        </mxCell>
        <mxCell id="BwE2QEpdmp8g6l8b1Yzs-38" value="1" style="edgeLabel;html=1;align=center;verticalAlign=middle;resizable=0;points=[];fontColor=#FF3333;fontStyle=1" vertex="1" connectable="0" parent="BwE2QEpdmp8g6l8b1Yzs-37">
          <mxGeometry x="-0.0657" relative="1" as="geometry">
            <mxPoint y="-2" as="offset" />
          </mxGeometry>
        </mxCell>
        <mxCell id="BwE2QEpdmp8g6l8b1Yzs-39" style="rounded=0;orthogonalLoop=1;jettySize=auto;html=1;exitX=0;exitY=0;exitDx=0;exitDy=0;entryX=1;entryY=1;entryDx=0;entryDy=0;endArrow=none;endFill=0;" edge="1" parent="KEGzqHDlvnHYpoda9I_1-1" source="BwE2QEpdmp8g6l8b1Yzs-41" target="BwE2QEpdmp8g6l8b1Yzs-68">
          <mxGeometry relative="1" as="geometry" />
        </mxCell>
        <mxCell id="BwE2QEpdmp8g6l8b1Yzs-40" value="2" style="edgeLabel;html=1;align=center;verticalAlign=middle;resizable=0;points=[];fontColor=#FF3333;fontStyle=1" vertex="1" connectable="0" parent="BwE2QEpdmp8g6l8b1Yzs-39">
          <mxGeometry x="0.0483" relative="1" as="geometry">
            <mxPoint as="offset" />
          </mxGeometry>
        </mxCell>
        <mxCell id="BwE2QEpdmp8g6l8b1Yzs-41" value="R" style="ellipse;whiteSpace=wrap;html=1;aspect=fixed;fontStyle=0;fillColor=#cccccc;" vertex="1" parent="KEGzqHDlvnHYpoda9I_1-1">
          <mxGeometry x="330.8300000000001" y="-620.1099999999999" width="26.23" height="26.23" as="geometry" />
        </mxCell>
        <mxCell id="BwE2QEpdmp8g6l8b1Yzs-46" value="bcd" style="ellipse;whiteSpace=wrap;html=1;aspect=fixed;fontStyle=0;fillColor=#cccccc;" vertex="1" parent="KEGzqHDlvnHYpoda9I_1-1">
          <mxGeometry x="263.8300000000001" y="-620.1099999999999" width="26.23" height="26.23" as="geometry" />
        </mxCell>
        <mxCell id="BwE2QEpdmp8g6l8b1Yzs-47" style="rounded=0;orthogonalLoop=1;jettySize=auto;html=1;exitX=1;exitY=0.5;exitDx=0;exitDy=0;entryX=0;entryY=0.5;entryDx=0;entryDy=0;endArrow=none;endFill=0;" edge="1" parent="KEGzqHDlvnHYpoda9I_1-1" source="BwE2QEpdmp8g6l8b1Yzs-55" target="BwE2QEpdmp8g6l8b1Yzs-60">
          <mxGeometry relative="1" as="geometry" />
        </mxCell>
        <mxCell id="BwE2QEpdmp8g6l8b1Yzs-48" value="1" style="edgeLabel;html=1;align=center;verticalAlign=middle;resizable=0;points=[];fontColor=#FF3333;fontStyle=1" vertex="1" connectable="0" parent="BwE2QEpdmp8g6l8b1Yzs-47">
          <mxGeometry x="-0.0231" relative="1" as="geometry">
            <mxPoint y="-1" as="offset" />
          </mxGeometry>
        </mxCell>
        <mxCell id="BwE2QEpdmp8g6l8b1Yzs-49" style="edgeStyle=orthogonalEdgeStyle;rounded=0;orthogonalLoop=1;jettySize=auto;html=1;exitX=0.5;exitY=1;exitDx=0;exitDy=0;entryX=0.5;entryY=0;entryDx=0;entryDy=0;endArrow=none;endFill=0;" edge="1" parent="KEGzqHDlvnHYpoda9I_1-1" source="BwE2QEpdmp8g6l8b1Yzs-55" target="BwE2QEpdmp8g6l8b1Yzs-65">
          <mxGeometry relative="1" as="geometry" />
        </mxCell>
        <mxCell id="BwE2QEpdmp8g6l8b1Yzs-50" value="1" style="edgeLabel;html=1;align=center;verticalAlign=middle;resizable=0;points=[];fontColor=#FF3333;fontStyle=1" vertex="1" connectable="0" parent="BwE2QEpdmp8g6l8b1Yzs-49">
          <mxGeometry x="-0.0894" y="-1" relative="1" as="geometry">
            <mxPoint y="1" as="offset" />
          </mxGeometry>
        </mxCell>
        <mxCell id="BwE2QEpdmp8g6l8b1Yzs-51" style="rounded=0;orthogonalLoop=1;jettySize=auto;html=1;exitX=0.5;exitY=0;exitDx=0;exitDy=0;entryX=0.5;entryY=1;entryDx=0;entryDy=0;endArrow=none;endFill=0;" edge="1" parent="KEGzqHDlvnHYpoda9I_1-1" source="BwE2QEpdmp8g6l8b1Yzs-55" target="BwE2QEpdmp8g6l8b1Yzs-67">
          <mxGeometry relative="1" as="geometry" />
        </mxCell>
        <mxCell id="BwE2QEpdmp8g6l8b1Yzs-52" value="1" style="edgeLabel;html=1;align=center;verticalAlign=middle;resizable=0;points=[];fontColor=#FF3333;fontStyle=1" vertex="1" connectable="0" parent="BwE2QEpdmp8g6l8b1Yzs-51">
          <mxGeometry x="-0.0433" y="-2" relative="1" as="geometry">
            <mxPoint x="-3" as="offset" />
          </mxGeometry>
        </mxCell>
        <mxCell id="BwE2QEpdmp8g6l8b1Yzs-55" value="abc" style="ellipse;whiteSpace=wrap;html=1;aspect=fixed;fontStyle=0;fillColor=#cccccc;" vertex="1" parent="KEGzqHDlvnHYpoda9I_1-1">
          <mxGeometry x="395.6000000000001" y="-620.1099999999999" width="26.23" height="26.23" as="geometry" />
        </mxCell>
        <mxCell id="BwE2QEpdmp8g6l8b1Yzs-58" style="rounded=0;orthogonalLoop=1;jettySize=auto;html=1;exitX=0;exitY=0;exitDx=0;exitDy=0;entryX=1;entryY=1;entryDx=0;entryDy=0;endArrow=none;endFill=0;dashed=1;fillColor=#f8cecc;strokeColor=#b85450;" edge="1" parent="KEGzqHDlvnHYpoda9I_1-1" source="BwE2QEpdmp8g6l8b1Yzs-60" target="BwE2QEpdmp8g6l8b1Yzs-67">
          <mxGeometry relative="1" as="geometry" />
        </mxCell>
        <mxCell id="BwE2QEpdmp8g6l8b1Yzs-59" value="1" style="edgeLabel;html=1;align=center;verticalAlign=middle;resizable=0;points=[];fontColor=#FF3333;fontStyle=1" vertex="1" connectable="0" parent="BwE2QEpdmp8g6l8b1Yzs-58">
          <mxGeometry x="0.0685" relative="1" as="geometry">
            <mxPoint x="2" y="2" as="offset" />
          </mxGeometry>
        </mxCell>
        <mxCell id="BwE2QEpdmp8g6l8b1Yzs-60" value="ac" style="ellipse;whiteSpace=wrap;html=1;aspect=fixed;fontStyle=0;fillColor=#cccccc;" vertex="1" parent="KEGzqHDlvnHYpoda9I_1-1">
          <mxGeometry x="463.8300000000001" y="-620.1099999999999" width="26.23" height="26.23" as="geometry" />
        </mxCell>
        <mxCell id="BwE2QEpdmp8g6l8b1Yzs-61" style="rounded=0;orthogonalLoop=1;jettySize=auto;html=1;exitX=1;exitY=0.5;exitDx=0;exitDy=0;entryX=0;entryY=0.5;entryDx=0;entryDy=0;endArrow=none;endFill=0;" edge="1" parent="KEGzqHDlvnHYpoda9I_1-1" source="BwE2QEpdmp8g6l8b1Yzs-65" target="BwE2QEpdmp8g6l8b1Yzs-66">
          <mxGeometry relative="1" as="geometry" />
        </mxCell>
        <mxCell id="BwE2QEpdmp8g6l8b1Yzs-62" value="2" style="edgeLabel;html=1;align=center;verticalAlign=middle;resizable=0;points=[];fontColor=#FF3333;fontStyle=1" vertex="1" connectable="0" parent="BwE2QEpdmp8g6l8b1Yzs-61">
          <mxGeometry x="0.0994" relative="1" as="geometry">
            <mxPoint as="offset" />
          </mxGeometry>
        </mxCell>
        <mxCell id="BwE2QEpdmp8g6l8b1Yzs-63" style="rounded=0;orthogonalLoop=1;jettySize=auto;html=1;exitX=1;exitY=0;exitDx=0;exitDy=0;entryX=0;entryY=1;entryDx=0;entryDy=0;endArrow=none;endFill=0;" edge="1" parent="KEGzqHDlvnHYpoda9I_1-1" source="BwE2QEpdmp8g6l8b1Yzs-65" target="BwE2QEpdmp8g6l8b1Yzs-69">
          <mxGeometry relative="1" as="geometry" />
        </mxCell>
        <mxCell id="BwE2QEpdmp8g6l8b1Yzs-64" value="2" style="edgeLabel;html=1;align=center;verticalAlign=middle;resizable=0;points=[];fontColor=#FF3333;fontStyle=1" vertex="1" connectable="0" parent="BwE2QEpdmp8g6l8b1Yzs-63">
          <mxGeometry x="0.2006" y="1" relative="1" as="geometry">
            <mxPoint x="-1" y="1" as="offset" />
          </mxGeometry>
        </mxCell>
        <mxCell id="BwE2QEpdmp8g6l8b1Yzs-65" value="bc" style="ellipse;whiteSpace=wrap;html=1;aspect=fixed;fontStyle=0;fillColor=#cccccc;" vertex="1" parent="KEGzqHDlvnHYpoda9I_1-1">
          <mxGeometry x="395.6000000000001" y="-544.05" width="26.23" height="26.23" as="geometry" />
        </mxCell>
        <mxCell id="BwE2QEpdmp8g6l8b1Yzs-66" value="c" style="ellipse;whiteSpace=wrap;html=1;aspect=fixed;fontStyle=0;verticalAlign=bottom;align=center;" vertex="1" parent="KEGzqHDlvnHYpoda9I_1-1">
          <mxGeometry x="468.50673306772916" y="-539.3726366559486" width="16.881028938906752" height="16.881028938906752" as="geometry" />
        </mxCell>
        <mxCell id="BwE2QEpdmp8g6l8b1Yzs-67" value="a" style="ellipse;whiteSpace=wrap;html=1;aspect=fixed;fontStyle=0;verticalAlign=middle;align=center;" vertex="1" parent="KEGzqHDlvnHYpoda9I_1-1">
          <mxGeometry x="400.27673306772914" y="-684.0526366559486" width="16.881028938906752" height="16.881028938906752" as="geometry" />
        </mxCell>
        <mxCell id="BwE2QEpdmp8g6l8b1Yzs-68" value="d" style="ellipse;whiteSpace=wrap;html=1;aspect=fixed;fontStyle=0;verticalAlign=bottom;" vertex="1" parent="KEGzqHDlvnHYpoda9I_1-1">
          <mxGeometry x="303.8267330677291" y="-684.0526366559486" width="16.881028938906752" height="16.881028938906752" as="geometry" />
        </mxCell>
        <mxCell id="BwE2QEpdmp8g6l8b1Yzs-69" value="b" style="ellipse;whiteSpace=wrap;html=1;aspect=fixed;fontStyle=0;verticalAlign=bottom;" vertex="1" parent="KEGzqHDlvnHYpoda9I_1-1">
          <mxGeometry x="436.8267330677291" y="-578.0526366559486" width="16.881028938906752" height="16.881028938906752" as="geometry" />
        </mxCell>
        <mxCell id="BwE2QEpdmp8g6l8b1Yzs-70" value="&lt;font style=&quot;font-size: 10px;&quot;&gt;1&lt;/font&gt;" style="ellipse;whiteSpace=wrap;html=1;aspect=fixed;fillColor=#d5e8d4;strokeColor=#82b366;fontSize=10;" vertex="1" parent="KEGzqHDlvnHYpoda9I_1-1">
          <mxGeometry x="259.94" y="-601" width="14.06" height="14.06" as="geometry" />
        </mxCell>
        <mxCell id="BwE2QEpdmp8g6l8b1Yzs-71" value="0" style="ellipse;whiteSpace=wrap;html=1;aspect=fixed;fillColor=#d5e8d4;strokeColor=#82b366;fontSize=10;" vertex="1" parent="KEGzqHDlvnHYpoda9I_1-1">
          <mxGeometry x="327.93999999999994" y="-602" width="14.06" height="14.06" as="geometry" />
        </mxCell>
        <mxCell id="BwE2QEpdmp8g6l8b1Yzs-72" value="2" style="ellipse;whiteSpace=wrap;html=1;aspect=fixed;fillColor=#d5e8d4;strokeColor=#82b366;fontSize=10;" vertex="1" parent="KEGzqHDlvnHYpoda9I_1-1">
          <mxGeometry x="391.9399999999999" y="-602" width="14.06" height="14.06" as="geometry" />
        </mxCell>
        <mxCell id="BwE2QEpdmp8g6l8b1Yzs-73" value="1" style="ellipse;whiteSpace=wrap;html=1;aspect=fixed;fillColor=#d5e8d4;strokeColor=#82b366;fontSize=10;" vertex="1" parent="KEGzqHDlvnHYpoda9I_1-1">
          <mxGeometry x="459.9399999999999" y="-602" width="14.06" height="14.06" as="geometry" />
        </mxCell>
        <mxCell id="BwE2QEpdmp8g6l8b1Yzs-74" value="3" style="ellipse;whiteSpace=wrap;html=1;aspect=fixed;fillColor=#d5e8d4;strokeColor=#82b366;fontSize=10;" vertex="1" parent="KEGzqHDlvnHYpoda9I_1-1">
          <mxGeometry x="391.9399999999999" y="-526" width="14.06" height="14.06" as="geometry" />
        </mxCell>
        <mxCell id="BwE2QEpdmp8g6l8b1Yzs-78" style="edgeStyle=orthogonalEdgeStyle;rounded=0;orthogonalLoop=1;jettySize=auto;html=1;entryX=1;entryY=0.5;entryDx=0;entryDy=0;endArrow=none;endFill=0;" edge="1" parent="KEGzqHDlvnHYpoda9I_1-1" source="BwE2QEpdmp8g6l8b1Yzs-86" target="BwE2QEpdmp8g6l8b1Yzs-87">
          <mxGeometry relative="1" as="geometry" />
        </mxCell>
        <mxCell id="BwE2QEpdmp8g6l8b1Yzs-79" value="1" style="edgeLabel;html=1;align=center;verticalAlign=middle;resizable=0;points=[];fontColor=#FF3333;fontStyle=1" vertex="1" connectable="0" parent="BwE2QEpdmp8g6l8b1Yzs-78">
          <mxGeometry x="-0.0245" y="-1" relative="1" as="geometry">
            <mxPoint as="offset" />
          </mxGeometry>
        </mxCell>
        <mxCell id="BwE2QEpdmp8g6l8b1Yzs-80" style="rounded=0;orthogonalLoop=1;jettySize=auto;html=1;exitX=1;exitY=0.5;exitDx=0;exitDy=0;entryX=0;entryY=0.5;entryDx=0;entryDy=0;endArrow=none;endFill=0;" edge="1" parent="KEGzqHDlvnHYpoda9I_1-1" source="BwE2QEpdmp8g6l8b1Yzs-86" target="BwE2QEpdmp8g6l8b1Yzs-94">
          <mxGeometry relative="1" as="geometry" />
        </mxCell>
        <mxCell id="BwE2QEpdmp8g6l8b1Yzs-81" value="2" style="edgeLabel;html=1;align=center;verticalAlign=middle;resizable=0;points=[];fontColor=#FF3333;fontStyle=1" vertex="1" connectable="0" parent="BwE2QEpdmp8g6l8b1Yzs-80">
          <mxGeometry x="-0.014" y="-1" relative="1" as="geometry">
            <mxPoint y="-2" as="offset" />
          </mxGeometry>
        </mxCell>
        <mxCell id="BwE2QEpdmp8g6l8b1Yzs-86" value="R" style="ellipse;whiteSpace=wrap;html=1;aspect=fixed;fontStyle=0;fillColor=#cccccc;" vertex="1" parent="KEGzqHDlvnHYpoda9I_1-1">
          <mxGeometry x="651.8300000000002" y="-620.1099999999999" width="26.23" height="26.23" as="geometry" />
        </mxCell>
        <mxCell id="BwE2QEpdmp8g6l8b1Yzs-87" value="bcd" style="ellipse;whiteSpace=wrap;html=1;aspect=fixed;fontStyle=0;fillColor=#cccccc;" vertex="1" parent="KEGzqHDlvnHYpoda9I_1-1">
          <mxGeometry x="584.8300000000002" y="-620.1099999999999" width="26.23" height="26.23" as="geometry" />
        </mxCell>
        <mxCell id="BwE2QEpdmp8g6l8b1Yzs-88" style="rounded=0;orthogonalLoop=1;jettySize=auto;html=1;exitX=1;exitY=0.5;exitDx=0;exitDy=0;entryX=0;entryY=0.5;entryDx=0;entryDy=0;endArrow=none;endFill=0;" edge="1" parent="KEGzqHDlvnHYpoda9I_1-1" source="BwE2QEpdmp8g6l8b1Yzs-94" target="BwE2QEpdmp8g6l8b1Yzs-97">
          <mxGeometry relative="1" as="geometry" />
        </mxCell>
        <mxCell id="BwE2QEpdmp8g6l8b1Yzs-89" value="1" style="edgeLabel;html=1;align=center;verticalAlign=middle;resizable=0;points=[];fontColor=#FF3333;fontStyle=1" vertex="1" connectable="0" parent="BwE2QEpdmp8g6l8b1Yzs-88">
          <mxGeometry x="-0.0231" relative="1" as="geometry">
            <mxPoint y="-1" as="offset" />
          </mxGeometry>
        </mxCell>
        <mxCell id="BwE2QEpdmp8g6l8b1Yzs-90" style="edgeStyle=orthogonalEdgeStyle;rounded=0;orthogonalLoop=1;jettySize=auto;html=1;exitX=0.5;exitY=1;exitDx=0;exitDy=0;entryX=0.5;entryY=0;entryDx=0;entryDy=0;endArrow=none;endFill=0;" edge="1" parent="KEGzqHDlvnHYpoda9I_1-1" source="BwE2QEpdmp8g6l8b1Yzs-94" target="BwE2QEpdmp8g6l8b1Yzs-102">
          <mxGeometry relative="1" as="geometry" />
        </mxCell>
        <mxCell id="BwE2QEpdmp8g6l8b1Yzs-91" value="1" style="edgeLabel;html=1;align=center;verticalAlign=middle;resizable=0;points=[];fontColor=#FF3333;fontStyle=1" vertex="1" connectable="0" parent="BwE2QEpdmp8g6l8b1Yzs-90">
          <mxGeometry x="-0.0894" y="-1" relative="1" as="geometry">
            <mxPoint y="1" as="offset" />
          </mxGeometry>
        </mxCell>
        <mxCell id="BwE2QEpdmp8g6l8b1Yzs-94" value="abc" style="ellipse;whiteSpace=wrap;html=1;aspect=fixed;fontStyle=0;fillColor=#cccccc;" vertex="1" parent="KEGzqHDlvnHYpoda9I_1-1">
          <mxGeometry x="716.6000000000001" y="-620.1099999999999" width="26.23" height="26.23" as="geometry" />
        </mxCell>
        <mxCell id="BwE2QEpdmp8g6l8b1Yzs-97" value="ac" style="ellipse;whiteSpace=wrap;html=1;aspect=fixed;fontStyle=0;fillColor=#cccccc;" vertex="1" parent="KEGzqHDlvnHYpoda9I_1-1">
          <mxGeometry x="784.8300000000002" y="-620.1099999999999" width="26.23" height="26.23" as="geometry" />
        </mxCell>
        <mxCell id="BwE2QEpdmp8g6l8b1Yzs-102" value="bc" style="ellipse;whiteSpace=wrap;html=1;aspect=fixed;fontStyle=0;fillColor=#cccccc;" vertex="1" parent="KEGzqHDlvnHYpoda9I_1-1">
          <mxGeometry x="716.6000000000001" y="-544.05" width="26.23" height="26.23" as="geometry" />
        </mxCell>
        <mxCell id="BwE2QEpdmp8g6l8b1Yzs-107" value="&lt;font style=&quot;font-size: 10px;&quot;&gt;1&lt;/font&gt;" style="ellipse;whiteSpace=wrap;html=1;aspect=fixed;fillColor=#d5e8d4;strokeColor=#82b366;fontSize=10;" vertex="1" parent="KEGzqHDlvnHYpoda9I_1-1">
          <mxGeometry x="580.94" y="-601" width="14.06" height="14.06" as="geometry" />
        </mxCell>
        <mxCell id="BwE2QEpdmp8g6l8b1Yzs-108" value="0" style="ellipse;whiteSpace=wrap;html=1;aspect=fixed;fillColor=#d5e8d4;strokeColor=#82b366;fontSize=10;" vertex="1" parent="KEGzqHDlvnHYpoda9I_1-1">
          <mxGeometry x="648.94" y="-602" width="14.06" height="14.06" as="geometry" />
        </mxCell>
        <mxCell id="BwE2QEpdmp8g6l8b1Yzs-109" value="2" style="ellipse;whiteSpace=wrap;html=1;aspect=fixed;fillColor=#d5e8d4;strokeColor=#82b366;fontSize=10;" vertex="1" parent="KEGzqHDlvnHYpoda9I_1-1">
          <mxGeometry x="712.9399999999999" y="-602" width="14.06" height="14.06" as="geometry" />
        </mxCell>
        <mxCell id="BwE2QEpdmp8g6l8b1Yzs-110" value="1" style="ellipse;whiteSpace=wrap;html=1;aspect=fixed;fillColor=#d5e8d4;strokeColor=#82b366;fontSize=10;" vertex="1" parent="KEGzqHDlvnHYpoda9I_1-1">
          <mxGeometry x="780.94" y="-602" width="14.06" height="14.06" as="geometry" />
        </mxCell>
        <mxCell id="BwE2QEpdmp8g6l8b1Yzs-111" value="3" style="ellipse;whiteSpace=wrap;html=1;aspect=fixed;fillColor=#d5e8d4;strokeColor=#82b366;fontSize=10;" vertex="1" parent="KEGzqHDlvnHYpoda9I_1-1">
          <mxGeometry x="712.9399999999999" y="-526" width="14.06" height="14.06" as="geometry" />
        </mxCell>
      </root>
    </mxGraphModel>
  </diagram>
  <diagram name="Page-1" id="h0j11PAoBNnZOjl50wy9">
    <mxGraphModel dx="1353" dy="1912" grid="1" gridSize="10" guides="1" tooltips="1" connect="1" arrows="1" fold="1" page="1" pageScale="1" pageWidth="850" pageHeight="1100" math="0" shadow="0">
      <root>
        <mxCell id="0" />
        <mxCell id="1" parent="0" />
        <mxCell id="BE0f78BMKFHATQ1xb_2E-177" value="&lt;font style=&quot;font-size: 16px;&quot;&gt;Step-2&lt;/font&gt;" style="rounded=1;whiteSpace=wrap;html=1;dashed=1;" parent="1" vertex="1">
          <mxGeometry x="44" y="-720" width="96" height="30" as="geometry" />
        </mxCell>
        <mxCell id="BE0f78BMKFHATQ1xb_2E-176" value="" style="rounded=1;whiteSpace=wrap;html=1;direction=south;dashed=1;dashPattern=8 8;" parent="1" vertex="1">
          <mxGeometry x="291" y="-450" width="328" height="279" as="geometry" />
        </mxCell>
        <mxCell id="BE0f78BMKFHATQ1xb_2E-22" value="" style="group" parent="1" vertex="1" connectable="0">
          <mxGeometry x="311" y="-1040" width="504" height="277.05999999999995" as="geometry" />
        </mxCell>
        <mxCell id="BE0f78BMKFHATQ1xb_2E-108" value="" style="rounded=1;whiteSpace=wrap;html=1;dashed=1;dashPattern=8 8;" parent="BE0f78BMKFHATQ1xb_2E-22" vertex="1">
          <mxGeometry x="-276" y="-2.9400000000000546" width="780" height="280" as="geometry" />
        </mxCell>
        <mxCell id="BE0f78BMKFHATQ1xb_2E-23" value="bc" style="ellipse;whiteSpace=wrap;html=1;aspect=fixed;fontStyle=0" parent="BE0f78BMKFHATQ1xb_2E-22" vertex="1">
          <mxGeometry x="158.20717131474103" y="184.88745980707395" width="16.881028938906752" height="16.881028938906752" as="geometry" />
        </mxCell>
        <mxCell id="BE0f78BMKFHATQ1xb_2E-24" value="abc" style="ellipse;whiteSpace=wrap;html=1;aspect=fixed;fontStyle=0" parent="BE0f78BMKFHATQ1xb_2E-22" vertex="1">
          <mxGeometry x="125.73306772908367" y="136.65594855305466" width="22" height="22" as="geometry" />
        </mxCell>
        <mxCell id="BE0f78BMKFHATQ1xb_2E-25" value="" style="endArrow=none;html=1;rounded=0;exitX=0.5;exitY=0;exitDx=0;exitDy=0;entryX=1;entryY=1;entryDx=0;entryDy=0;fontStyle=0" parent="BE0f78BMKFHATQ1xb_2E-22" source="BE0f78BMKFHATQ1xb_2E-35" target="BE0f78BMKFHATQ1xb_2E-37" edge="1">
          <mxGeometry width="50" height="50" relative="1" as="geometry">
            <mxPoint x="54.12350597609562" y="188.90675241157555" as="sourcePoint" />
            <mxPoint x="52.5186993063513" y="35.61418077901066" as="targetPoint" />
          </mxGeometry>
        </mxCell>
        <mxCell id="BE0f78BMKFHATQ1xb_2E-26" value="" style="endArrow=none;html=1;rounded=0;exitX=0.5;exitY=0;exitDx=0;exitDy=0;entryX=0;entryY=1;entryDx=0;entryDy=0;fontStyle=0" parent="BE0f78BMKFHATQ1xb_2E-22" source="BE0f78BMKFHATQ1xb_2E-34" target="BE0f78BMKFHATQ1xb_2E-35" edge="1">
          <mxGeometry width="50" height="50" relative="1" as="geometry">
            <mxPoint x="-62.45378882871015" y="182.47934966694197" as="sourcePoint" />
            <mxPoint x="-1.6617490198958038" y="113.3405860243767" as="targetPoint" />
          </mxGeometry>
        </mxCell>
        <mxCell id="BE0f78BMKFHATQ1xb_2E-27" value="" style="endArrow=none;html=1;rounded=0;exitX=0.5;exitY=0;exitDx=0;exitDy=0;entryX=0;entryY=1;entryDx=0;entryDy=0;fontStyle=0" parent="BE0f78BMKFHATQ1xb_2E-22" source="BE0f78BMKFHATQ1xb_2E-31" target="BE0f78BMKFHATQ1xb_2E-24" edge="1">
          <mxGeometry width="50" height="50" relative="1" as="geometry">
            <mxPoint x="-32.47051396013447" y="269.2960699241767" as="sourcePoint" />
            <mxPoint x="74.9402390438247" y="152.7331189710611" as="targetPoint" />
          </mxGeometry>
        </mxCell>
        <mxCell id="BE0f78BMKFHATQ1xb_2E-28" value="" style="endArrow=none;html=1;rounded=0;exitX=0.5;exitY=0;exitDx=0;exitDy=0;entryX=0;entryY=1;entryDx=0;entryDy=0;fontStyle=0" parent="BE0f78BMKFHATQ1xb_2E-22" source="BE0f78BMKFHATQ1xb_2E-36" target="BE0f78BMKFHATQ1xb_2E-37" edge="1">
          <mxGeometry width="50" height="50" relative="1" as="geometry">
            <mxPoint x="54.12350597609562" y="188.90675241157555" as="sourcePoint" />
            <mxPoint x="88.1368349022007" y="33.60979685050966" as="targetPoint" />
          </mxGeometry>
        </mxCell>
        <mxCell id="BE0f78BMKFHATQ1xb_2E-29" value="" style="endArrow=none;html=1;rounded=0;entryX=0;entryY=1;entryDx=0;entryDy=0;exitX=0.5;exitY=0;exitDx=0;exitDy=0;fontStyle=0" parent="BE0f78BMKFHATQ1xb_2E-22" source="BE0f78BMKFHATQ1xb_2E-32" target="BE0f78BMKFHATQ1xb_2E-23" edge="1">
          <mxGeometry width="50" height="50" relative="1" as="geometry">
            <mxPoint x="106.57808368125" y="182.47934966694197" as="sourcePoint" />
            <mxPoint x="95.7569721115538" y="148.7138263665595" as="targetPoint" />
          </mxGeometry>
        </mxCell>
        <mxCell id="BE0f78BMKFHATQ1xb_2E-30" value="" style="endArrow=none;html=1;rounded=0;entryX=1;entryY=1;entryDx=0;entryDy=0;exitX=0.5;exitY=0;exitDx=0;exitDy=0;fontStyle=0" parent="BE0f78BMKFHATQ1xb_2E-22" source="BE0f78BMKFHATQ1xb_2E-33" target="BE0f78BMKFHATQ1xb_2E-23" edge="1">
          <mxGeometry width="50" height="50" relative="1" as="geometry">
            <mxPoint x="245.64103982472628" y="184.89092522964313" as="sourcePoint" />
            <mxPoint x="95.7569721115538" y="148.7138263665595" as="targetPoint" />
          </mxGeometry>
        </mxCell>
        <mxCell id="BE0f78BMKFHATQ1xb_2E-31" value="&lt;font style=&quot;font-size: 12px;&quot;&gt;a&lt;/font&gt;" style="ellipse;whiteSpace=wrap;html=1;aspect=fixed;fontStyle=0" parent="BE0f78BMKFHATQ1xb_2E-22" vertex="1">
          <mxGeometry x="90.76095617529882" y="184.88745980707395" width="16.881028938906752" height="16.881028938906752" as="geometry" />
        </mxCell>
        <mxCell id="BE0f78BMKFHATQ1xb_2E-32" value="&lt;font style=&quot;font-size: 12px;&quot;&gt;b&lt;/font&gt;" style="ellipse;whiteSpace=wrap;html=1;aspect=fixed;fontStyle=0" parent="BE0f78BMKFHATQ1xb_2E-22" vertex="1">
          <mxGeometry x="133.22709163346613" y="233.11897106109325" width="16.881028938906752" height="16.881028938906752" as="geometry" />
        </mxCell>
        <mxCell id="BE0f78BMKFHATQ1xb_2E-33" value="&lt;font style=&quot;font-size: 12px;&quot;&gt;c&lt;/font&gt;" style="ellipse;whiteSpace=wrap;html=1;aspect=fixed;fontStyle=0" parent="BE0f78BMKFHATQ1xb_2E-22" vertex="1">
          <mxGeometry x="191.5139442231076" y="233.11897106109325" width="16.881028938906752" height="16.881028938906752" as="geometry" />
        </mxCell>
        <mxCell id="BE0f78BMKFHATQ1xb_2E-34" value="d" style="ellipse;whiteSpace=wrap;html=1;aspect=fixed;fontStyle=0" parent="BE0f78BMKFHATQ1xb_2E-22" vertex="1">
          <mxGeometry x="41.63346613545817" y="128.61736334405145" width="16.881028938906752" height="16.881028938906752" as="geometry" />
        </mxCell>
        <mxCell id="BE0f78BMKFHATQ1xb_2E-35" value="abcd" style="ellipse;whiteSpace=wrap;html=1;aspect=fixed;fontStyle=0" parent="BE0f78BMKFHATQ1xb_2E-22" vertex="1">
          <mxGeometry x="82.43426294820718" y="72.34726688102893" width="28" height="28" as="geometry" />
        </mxCell>
        <mxCell id="BE0f78BMKFHATQ1xb_2E-36" value="&lt;font style=&quot;font-size: 12px;&quot;&gt;e&lt;/font&gt;" style="ellipse;whiteSpace=wrap;html=1;aspect=fixed;fontStyle=0" parent="BE0f78BMKFHATQ1xb_2E-22" vertex="1">
          <mxGeometry y="76.36655948553054" width="16.881028938906752" height="16.881028938906752" as="geometry" />
        </mxCell>
        <mxCell id="BE0f78BMKFHATQ1xb_2E-37" value="&lt;font style=&quot;font-size: 12px;&quot;&gt;abcde&lt;/font&gt;" style="ellipse;whiteSpace=wrap;html=1;aspect=fixed;fontStyle=0" parent="BE0f78BMKFHATQ1xb_2E-22" vertex="1">
          <mxGeometry x="33.30677290836653" width="34" height="34" as="geometry" />
        </mxCell>
        <mxCell id="BE0f78BMKFHATQ1xb_2E-38" value="" style="endArrow=none;html=1;rounded=0;entryX=1;entryY=1;entryDx=0;entryDy=0;exitX=0.5;exitY=0;exitDx=0;exitDy=0;fontStyle=0" parent="BE0f78BMKFHATQ1xb_2E-22" source="BE0f78BMKFHATQ1xb_2E-24" target="BE0f78BMKFHATQ1xb_2E-35" edge="1">
          <mxGeometry width="50" height="50" relative="1" as="geometry">
            <mxPoint x="45.79681274900398" y="171.22186495176848" as="sourcePoint" />
            <mxPoint x="87.43027888446215" y="131.02893890675242" as="targetPoint" />
          </mxGeometry>
        </mxCell>
        <mxCell id="BE0f78BMKFHATQ1xb_2E-39" value="" style="endArrow=none;html=1;rounded=0;entryX=1;entryY=1;entryDx=0;entryDy=0;exitX=0.5;exitY=0;exitDx=0;exitDy=0;fontStyle=0" parent="BE0f78BMKFHATQ1xb_2E-22" source="BE0f78BMKFHATQ1xb_2E-23" target="BE0f78BMKFHATQ1xb_2E-24" edge="1">
          <mxGeometry width="50" height="50" relative="1" as="geometry">
            <mxPoint x="124.9003984063745" y="225.08038585209002" as="sourcePoint" />
            <mxPoint x="166.53386454183268" y="184.88745980707395" as="targetPoint" />
          </mxGeometry>
        </mxCell>
        <mxCell id="BE0f78BMKFHATQ1xb_2E-40" value="" style="group" parent="1" vertex="1" connectable="0">
          <mxGeometry x="571" y="-1040" width="279" height="270" as="geometry" />
        </mxCell>
        <mxCell id="BE0f78BMKFHATQ1xb_2E-41" value="bc" style="ellipse;whiteSpace=wrap;html=1;aspect=fixed;fontStyle=0" parent="BE0f78BMKFHATQ1xb_2E-40" vertex="1">
          <mxGeometry x="158.20717131474103" y="184.88745980707395" width="16.471613545816734" height="16.471613545816734" as="geometry" />
        </mxCell>
        <mxCell id="BE0f78BMKFHATQ1xb_2E-42" value="abc" style="ellipse;whiteSpace=wrap;html=1;aspect=fixed;fontStyle=0" parent="BE0f78BMKFHATQ1xb_2E-40" vertex="1">
          <mxGeometry x="125.73306772908366" y="136.65594855305469" width="22" height="22" as="geometry" />
        </mxCell>
        <mxCell id="BE0f78BMKFHATQ1xb_2E-43" value="" style="endArrow=none;html=1;rounded=0;exitX=0.5;exitY=0;exitDx=0;exitDy=0;entryX=1;entryY=1;entryDx=0;entryDy=0;fontStyle=0" parent="BE0f78BMKFHATQ1xb_2E-40" source="BE0f78BMKFHATQ1xb_2E-53" target="BE0f78BMKFHATQ1xb_2E-55" edge="1">
          <mxGeometry width="50" height="50" relative="1" as="geometry">
            <mxPoint x="54.123505976095615" y="188.90675241157555" as="sourcePoint" />
            <mxPoint x="52.518699306351294" y="35.61418077901067" as="targetPoint" />
          </mxGeometry>
        </mxCell>
        <mxCell id="BE0f78BMKFHATQ1xb_2E-44" value="" style="endArrow=none;html=1;rounded=0;exitX=0.5;exitY=0;exitDx=0;exitDy=0;entryX=0;entryY=1;entryDx=0;entryDy=0;fontStyle=0" parent="BE0f78BMKFHATQ1xb_2E-40" source="BE0f78BMKFHATQ1xb_2E-52" target="BE0f78BMKFHATQ1xb_2E-53" edge="1">
          <mxGeometry width="50" height="50" relative="1" as="geometry">
            <mxPoint x="-62.45378882871015" y="182.47934966694197" as="sourcePoint" />
            <mxPoint x="-1.6617490198958036" y="113.3405860243767" as="targetPoint" />
          </mxGeometry>
        </mxCell>
        <mxCell id="BE0f78BMKFHATQ1xb_2E-45" value="" style="endArrow=none;html=1;rounded=0;exitX=0.5;exitY=0;exitDx=0;exitDy=0;entryX=0;entryY=1;entryDx=0;entryDy=0;fontStyle=0" parent="BE0f78BMKFHATQ1xb_2E-40" source="BE0f78BMKFHATQ1xb_2E-49" target="BE0f78BMKFHATQ1xb_2E-42" edge="1">
          <mxGeometry width="50" height="50" relative="1" as="geometry">
            <mxPoint x="-32.47051396013447" y="269.29606992417666" as="sourcePoint" />
            <mxPoint x="74.9402390438247" y="152.7331189710611" as="targetPoint" />
          </mxGeometry>
        </mxCell>
        <mxCell id="BE0f78BMKFHATQ1xb_2E-46" value="" style="endArrow=none;html=1;rounded=0;exitX=0.5;exitY=0;exitDx=0;exitDy=0;entryX=0;entryY=1;entryDx=0;entryDy=0;fontStyle=0" parent="BE0f78BMKFHATQ1xb_2E-40" source="BE0f78BMKFHATQ1xb_2E-54" target="BE0f78BMKFHATQ1xb_2E-55" edge="1">
          <mxGeometry width="50" height="50" relative="1" as="geometry">
            <mxPoint x="54.123505976095615" y="188.90675241157555" as="sourcePoint" />
            <mxPoint x="88.1368349022007" y="33.60979685050966" as="targetPoint" />
          </mxGeometry>
        </mxCell>
        <mxCell id="BE0f78BMKFHATQ1xb_2E-47" value="" style="endArrow=none;html=1;rounded=0;entryX=0;entryY=1;entryDx=0;entryDy=0;exitX=0.5;exitY=0;exitDx=0;exitDy=0;fontStyle=0" parent="BE0f78BMKFHATQ1xb_2E-40" source="BE0f78BMKFHATQ1xb_2E-50" target="BE0f78BMKFHATQ1xb_2E-41" edge="1">
          <mxGeometry width="50" height="50" relative="1" as="geometry">
            <mxPoint x="106.57808368125" y="182.47934966694197" as="sourcePoint" />
            <mxPoint x="95.75697211155378" y="148.7138263665595" as="targetPoint" />
          </mxGeometry>
        </mxCell>
        <mxCell id="BE0f78BMKFHATQ1xb_2E-48" value="" style="endArrow=none;html=1;rounded=0;entryX=1;entryY=1;entryDx=0;entryDy=0;exitX=0.5;exitY=0;exitDx=0;exitDy=0;fontStyle=0" parent="BE0f78BMKFHATQ1xb_2E-40" source="BE0f78BMKFHATQ1xb_2E-51" target="BE0f78BMKFHATQ1xb_2E-41" edge="1">
          <mxGeometry width="50" height="50" relative="1" as="geometry">
            <mxPoint x="245.64103982472628" y="184.89092522964313" as="sourcePoint" />
            <mxPoint x="95.75697211155378" y="148.7138263665595" as="targetPoint" />
          </mxGeometry>
        </mxCell>
        <mxCell id="BE0f78BMKFHATQ1xb_2E-49" value="&lt;font style=&quot;font-size: 12px;&quot;&gt;a&lt;/font&gt;" style="ellipse;whiteSpace=wrap;html=1;aspect=fixed;fontStyle=0" parent="BE0f78BMKFHATQ1xb_2E-40" vertex="1">
          <mxGeometry x="90.7609561752988" y="184.88745980707395" width="16.471613545816734" height="16.471613545816734" as="geometry" />
        </mxCell>
        <mxCell id="BE0f78BMKFHATQ1xb_2E-50" value="&lt;font style=&quot;font-size: 12px;&quot;&gt;b&lt;/font&gt;" style="ellipse;whiteSpace=wrap;html=1;aspect=fixed;fontStyle=0" parent="BE0f78BMKFHATQ1xb_2E-40" vertex="1">
          <mxGeometry x="133.22709163346613" y="233.11897106109325" width="16.471613545816734" height="16.471613545816734" as="geometry" />
        </mxCell>
        <mxCell id="BE0f78BMKFHATQ1xb_2E-51" value="&lt;font style=&quot;font-size: 12px;&quot;&gt;c&lt;/font&gt;" style="ellipse;whiteSpace=wrap;html=1;aspect=fixed;fontStyle=0" parent="BE0f78BMKFHATQ1xb_2E-40" vertex="1">
          <mxGeometry x="191.51394422310756" y="233.11897106109325" width="16.471613545816734" height="16.471613545816734" as="geometry" />
        </mxCell>
        <mxCell id="BE0f78BMKFHATQ1xb_2E-52" value="e" style="ellipse;whiteSpace=wrap;html=1;aspect=fixed;fontStyle=0" parent="BE0f78BMKFHATQ1xb_2E-40" vertex="1">
          <mxGeometry x="41.633466135458164" y="128.61736334405145" width="16.471613545816734" height="16.471613545816734" as="geometry" />
        </mxCell>
        <mxCell id="BE0f78BMKFHATQ1xb_2E-53" value="abce" style="ellipse;whiteSpace=wrap;html=1;aspect=fixed;fontStyle=0" parent="BE0f78BMKFHATQ1xb_2E-40" vertex="1">
          <mxGeometry x="82.43426294820716" y="72.34726688102894" width="28" height="28" as="geometry" />
        </mxCell>
        <mxCell id="BE0f78BMKFHATQ1xb_2E-54" value="&lt;font style=&quot;font-size: 12px;&quot;&gt;d&lt;/font&gt;" style="ellipse;whiteSpace=wrap;html=1;aspect=fixed;fontStyle=0" parent="BE0f78BMKFHATQ1xb_2E-40" vertex="1">
          <mxGeometry y="76.36655948553054" width="16.471613545816734" height="16.471613545816734" as="geometry" />
        </mxCell>
        <mxCell id="BE0f78BMKFHATQ1xb_2E-55" value="&lt;font style=&quot;font-size: 12px;&quot;&gt;abcde&lt;/font&gt;" style="ellipse;whiteSpace=wrap;html=1;aspect=fixed;fontStyle=0" parent="BE0f78BMKFHATQ1xb_2E-40" vertex="1">
          <mxGeometry x="33.30677290836653" width="34" height="34" as="geometry" />
        </mxCell>
        <mxCell id="BE0f78BMKFHATQ1xb_2E-56" value="" style="endArrow=none;html=1;rounded=0;entryX=1;entryY=1;entryDx=0;entryDy=0;exitX=0.5;exitY=0;exitDx=0;exitDy=0;fontStyle=0" parent="BE0f78BMKFHATQ1xb_2E-40" source="BE0f78BMKFHATQ1xb_2E-42" target="BE0f78BMKFHATQ1xb_2E-53" edge="1">
          <mxGeometry width="50" height="50" relative="1" as="geometry">
            <mxPoint x="45.79681274900398" y="171.22186495176848" as="sourcePoint" />
            <mxPoint x="87.43027888446215" y="131.02893890675242" as="targetPoint" />
          </mxGeometry>
        </mxCell>
        <mxCell id="BE0f78BMKFHATQ1xb_2E-57" value="" style="endArrow=none;html=1;rounded=0;entryX=1;entryY=1;entryDx=0;entryDy=0;exitX=0.5;exitY=0;exitDx=0;exitDy=0;fontStyle=0" parent="BE0f78BMKFHATQ1xb_2E-40" source="BE0f78BMKFHATQ1xb_2E-41" target="BE0f78BMKFHATQ1xb_2E-42" edge="1">
          <mxGeometry width="50" height="50" relative="1" as="geometry">
            <mxPoint x="124.90039840637449" y="225.08038585209002" as="sourcePoint" />
            <mxPoint x="166.53386454183266" y="184.88745980707395" as="targetPoint" />
          </mxGeometry>
        </mxCell>
        <mxCell id="BE0f78BMKFHATQ1xb_2E-109" value="" style="group" parent="1" vertex="1" connectable="0">
          <mxGeometry x="19" y="-690" width="380" height="180" as="geometry" />
        </mxCell>
        <mxCell id="BE0f78BMKFHATQ1xb_2E-107" value="" style="rounded=1;whiteSpace=wrap;html=1;dashed=1;dashPattern=8 8;" parent="BE0f78BMKFHATQ1xb_2E-109" vertex="1">
          <mxGeometry x="-5.428571428571428" width="380" height="180" as="geometry" />
        </mxCell>
        <mxCell id="BE0f78BMKFHATQ1xb_2E-59" value="bc" style="ellipse;whiteSpace=wrap;html=1;aspect=fixed;fontStyle=0" parent="BE0f78BMKFHATQ1xb_2E-109" vertex="1">
          <mxGeometry x="302.19047619047615" y="99" width="21.71428571428571" height="21.71428571428571" as="geometry" />
        </mxCell>
        <mxCell id="BE0f78BMKFHATQ1xb_2E-60" value="abc" style="ellipse;whiteSpace=wrap;html=1;aspect=fixed;fontStyle=0" parent="BE0f78BMKFHATQ1xb_2E-109" vertex="1">
          <mxGeometry x="297.66666666666663" y="40" width="30.76190476190476" height="30.76190476190476" as="geometry" />
        </mxCell>
        <mxCell id="BE0f78BMKFHATQ1xb_2E-61" value="" style="endArrow=none;html=1;rounded=0;exitX=0;exitY=0.5;exitDx=0;exitDy=0;entryX=1;entryY=0.5;entryDx=0;entryDy=0;fontStyle=0" parent="BE0f78BMKFHATQ1xb_2E-109" source="BE0f78BMKFHATQ1xb_2E-71" target="BE0f78BMKFHATQ1xb_2E-73" edge="1">
          <mxGeometry width="50" height="50" relative="1" as="geometry">
            <mxPoint x="122.14285714285712" y="275" as="sourcePoint" />
            <mxPoint x="120.39910617270206" y="84.30404088908926" as="targetPoint" />
          </mxGeometry>
        </mxCell>
        <mxCell id="BE0f78BMKFHATQ1xb_2E-62" value="" style="endArrow=none;html=1;rounded=0;exitX=0.5;exitY=0;exitDx=0;exitDy=0;entryX=0.5;entryY=1;entryDx=0;entryDy=0;fontStyle=0" parent="BE0f78BMKFHATQ1xb_2E-109" source="BE0f78BMKFHATQ1xb_2E-70" target="BE0f78BMKFHATQ1xb_2E-71" edge="1">
          <mxGeometry width="50" height="50" relative="1" as="geometry">
            <mxPoint x="-4.527709939420988" y="267.00431098567583" as="sourcePoint" />
            <mxPoint x="61.52770993942057" y="180.99568901432463" as="targetPoint" />
          </mxGeometry>
        </mxCell>
        <mxCell id="BE0f78BMKFHATQ1xb_2E-63" value="" style="endArrow=none;html=1;rounded=0;exitX=1;exitY=0;exitDx=0;exitDy=0;entryX=0;entryY=1;entryDx=0;entryDy=0;fontStyle=0" parent="BE0f78BMKFHATQ1xb_2E-109" source="BE0f78BMKFHATQ1xb_2E-67" target="BE0f78BMKFHATQ1xb_2E-60" edge="1">
          <mxGeometry width="50" height="50" relative="1" as="geometry">
            <mxPoint x="110.38485279656383" y="375.00431098567583" as="sourcePoint" />
            <mxPoint x="286.92319025026063" y="239.8743686707645" as="targetPoint" />
          </mxGeometry>
        </mxCell>
        <mxCell id="BE0f78BMKFHATQ1xb_2E-64" value="" style="endArrow=none;html=1;rounded=0;exitX=1;exitY=0.5;exitDx=0;exitDy=0;entryX=0;entryY=0.5;entryDx=0;entryDy=0;fontStyle=0" parent="BE0f78BMKFHATQ1xb_2E-109" source="BE0f78BMKFHATQ1xb_2E-72" target="BE0f78BMKFHATQ1xb_2E-73" edge="1">
          <mxGeometry width="50" height="50" relative="1" as="geometry">
            <mxPoint x="122.14285714285712" y="275" as="sourcePoint" />
            <mxPoint x="159.10106303226138" y="81.81058728203402" as="targetPoint" />
          </mxGeometry>
        </mxCell>
        <mxCell id="BE0f78BMKFHATQ1xb_2E-65" value="" style="endArrow=none;html=1;rounded=0;entryX=0;entryY=1;entryDx=0;entryDy=0;exitX=0.5;exitY=0;exitDx=0;exitDy=0;fontStyle=0" parent="BE0f78BMKFHATQ1xb_2E-109" source="BE0f78BMKFHATQ1xb_2E-68" target="BE0f78BMKFHATQ1xb_2E-59" edge="1">
          <mxGeometry width="50" height="50" relative="1" as="geometry">
            <mxPoint x="179.13895672724567" y="267.00431098567583" as="sourcePoint" />
            <mxPoint x="167.38095238095235" y="225" as="targetPoint" />
          </mxGeometry>
        </mxCell>
        <mxCell id="BE0f78BMKFHATQ1xb_2E-66" value="" style="endArrow=none;html=1;rounded=0;entryX=1;entryY=1;entryDx=0;entryDy=0;exitX=0.5;exitY=0;exitDx=0;exitDy=0;fontStyle=0" parent="BE0f78BMKFHATQ1xb_2E-109" source="BE0f78BMKFHATQ1xb_2E-69" target="BE0f78BMKFHATQ1xb_2E-59" edge="1">
          <mxGeometry width="50" height="50" relative="1" as="geometry">
            <mxPoint x="330.2419956537069" y="270.00431098567606" as="sourcePoint" />
            <mxPoint x="167.38095238095235" y="225" as="targetPoint" />
          </mxGeometry>
        </mxCell>
        <mxCell id="BE0f78BMKFHATQ1xb_2E-67" value="&lt;font style=&quot;font-size: 12px;&quot;&gt;a&lt;/font&gt;" style="ellipse;whiteSpace=wrap;html=1;aspect=fixed;fontStyle=0" parent="BE0f78BMKFHATQ1xb_2E-109" vertex="1">
          <mxGeometry x="254.69047619047615" y="94" width="19" height="19" as="geometry" />
        </mxCell>
        <mxCell id="BE0f78BMKFHATQ1xb_2E-68" value="&lt;font style=&quot;font-size: 12px;&quot;&gt;b&lt;/font&gt;" style="ellipse;whiteSpace=wrap;html=1;aspect=fixed;fontStyle=0" parent="BE0f78BMKFHATQ1xb_2E-109" vertex="1">
          <mxGeometry x="283.19047619047615" y="145" width="19" height="19" as="geometry" />
        </mxCell>
        <mxCell id="BE0f78BMKFHATQ1xb_2E-69" value="&lt;font style=&quot;font-size: 12px;&quot;&gt;c&lt;/font&gt;" style="ellipse;whiteSpace=wrap;html=1;aspect=fixed;fontStyle=0" parent="BE0f78BMKFHATQ1xb_2E-109" vertex="1">
          <mxGeometry x="320.2857142857142" y="145" width="19" height="19" as="geometry" />
        </mxCell>
        <mxCell id="BE0f78BMKFHATQ1xb_2E-70" value="bcd" style="ellipse;whiteSpace=wrap;html=1;aspect=fixed;fontStyle=0" parent="BE0f78BMKFHATQ1xb_2E-109" vertex="1">
          <mxGeometry x="197.69047619047615" y="120" width="22.619047619047617" height="22.619047619047617" as="geometry" />
        </mxCell>
        <mxCell id="BE0f78BMKFHATQ1xb_2E-71" value="abcd" style="ellipse;whiteSpace=wrap;html=1;aspect=fixed;fontStyle=0" parent="BE0f78BMKFHATQ1xb_2E-109" vertex="1">
          <mxGeometry x="195.4285714285714" y="40" width="30.76190476190476" height="30.76190476190476" as="geometry" />
        </mxCell>
        <mxCell id="BE0f78BMKFHATQ1xb_2E-72" value="&lt;font style=&quot;font-size: 12px;&quot;&gt;abce&lt;/font&gt;" style="ellipse;whiteSpace=wrap;html=1;aspect=fixed;fontStyle=0" parent="BE0f78BMKFHATQ1xb_2E-109" vertex="1">
          <mxGeometry x="18.095238095238095" y="40" width="30.76190476190476" height="30.76190476190476" as="geometry" />
        </mxCell>
        <mxCell id="BE0f78BMKFHATQ1xb_2E-73" value="&lt;font style=&quot;font-size: 12px;&quot;&gt;abcde&lt;/font&gt;" style="ellipse;whiteSpace=wrap;html=1;aspect=fixed;fontStyle=0" parent="BE0f78BMKFHATQ1xb_2E-109" vertex="1">
          <mxGeometry x="104.04761904761904" y="40" width="30.76190476190476" height="30.76190476190476" as="geometry" />
        </mxCell>
        <mxCell id="BE0f78BMKFHATQ1xb_2E-74" value="" style="endArrow=none;html=1;rounded=0;entryX=1;entryY=0.5;entryDx=0;entryDy=0;exitX=0;exitY=0.5;exitDx=0;exitDy=0;fontStyle=0;" parent="BE0f78BMKFHATQ1xb_2E-109" source="BE0f78BMKFHATQ1xb_2E-60" target="BE0f78BMKFHATQ1xb_2E-71" edge="1">
          <mxGeometry width="50" height="50" relative="1" as="geometry">
            <mxPoint x="113.09523809523807" y="253" as="sourcePoint" />
            <mxPoint x="158.33333333333331" y="203" as="targetPoint" />
          </mxGeometry>
        </mxCell>
        <mxCell id="BE0f78BMKFHATQ1xb_2E-75" value="" style="endArrow=none;html=1;rounded=0;entryX=0.5;entryY=1;entryDx=0;entryDy=0;exitX=0.5;exitY=0;exitDx=0;exitDy=0;fontStyle=0" parent="BE0f78BMKFHATQ1xb_2E-109" source="BE0f78BMKFHATQ1xb_2E-59" target="BE0f78BMKFHATQ1xb_2E-60" edge="1">
          <mxGeometry width="50" height="50" relative="1" as="geometry">
            <mxPoint x="199.04761904761904" y="320" as="sourcePoint" />
            <mxPoint x="244.28571428571425" y="270" as="targetPoint" />
          </mxGeometry>
        </mxCell>
        <mxCell id="BE0f78BMKFHATQ1xb_2E-76" value="" style="endArrow=none;html=1;rounded=0;entryX=1;entryY=1;entryDx=0;entryDy=0;exitX=0;exitY=0;exitDx=0;exitDy=0;" parent="BE0f78BMKFHATQ1xb_2E-109" source="BE0f78BMKFHATQ1xb_2E-67" target="BE0f78BMKFHATQ1xb_2E-71" edge="1">
          <mxGeometry width="50" height="50" relative="1" as="geometry">
            <mxPoint x="126.66666666666664" y="200" as="sourcePoint" />
            <mxPoint x="171.90476190476187" y="150" as="targetPoint" />
          </mxGeometry>
        </mxCell>
        <mxCell id="BE0f78BMKFHATQ1xb_2E-77" value="&lt;font style=&quot;font-size: 12px;&quot;&gt;e&lt;/font&gt;" style="ellipse;whiteSpace=wrap;html=1;aspect=fixed;fontStyle=0" parent="BE0f78BMKFHATQ1xb_2E-109" vertex="1">
          <mxGeometry x="63.33333333333332" y="120" width="19" height="19" as="geometry" />
        </mxCell>
        <mxCell id="BE0f78BMKFHATQ1xb_2E-78" value="" style="endArrow=none;html=1;rounded=0;exitX=0;exitY=0;exitDx=0;exitDy=0;entryX=0.5;entryY=1;entryDx=0;entryDy=0;" parent="BE0f78BMKFHATQ1xb_2E-109" source="BE0f78BMKFHATQ1xb_2E-77" target="BE0f78BMKFHATQ1xb_2E-72" edge="1">
          <mxGeometry width="50" height="50" relative="1" as="geometry">
            <mxPoint y="120" as="sourcePoint" />
            <mxPoint x="45.238095238095234" y="70" as="targetPoint" />
          </mxGeometry>
        </mxCell>
        <mxCell id="BE0f78BMKFHATQ1xb_2E-79" value="" style="endArrow=none;html=1;rounded=0;entryX=0.5;entryY=1;entryDx=0;entryDy=0;exitX=1;exitY=0;exitDx=0;exitDy=0;" parent="BE0f78BMKFHATQ1xb_2E-109" source="BE0f78BMKFHATQ1xb_2E-77" target="BE0f78BMKFHATQ1xb_2E-73" edge="1">
          <mxGeometry width="50" height="50" relative="1" as="geometry">
            <mxPoint x="72.38095238095238" y="130" as="sourcePoint" />
            <mxPoint x="117.6190476190476" y="80" as="targetPoint" />
          </mxGeometry>
        </mxCell>
        <mxCell id="BE0f78BMKFHATQ1xb_2E-80" value="&lt;font style=&quot;font-size: 12px;&quot;&gt;d&lt;/font&gt;" style="ellipse;whiteSpace=wrap;html=1;aspect=fixed;fontStyle=0" parent="BE0f78BMKFHATQ1xb_2E-109" vertex="1">
          <mxGeometry x="149.28571428571428" y="120" width="19" height="19" as="geometry" />
        </mxCell>
        <mxCell id="BE0f78BMKFHATQ1xb_2E-81" value="" style="endArrow=none;html=1;rounded=0;entryX=0.034;entryY=0.71;entryDx=0;entryDy=0;entryPerimeter=0;exitX=1;exitY=0;exitDx=0;exitDy=0;" parent="BE0f78BMKFHATQ1xb_2E-109" source="BE0f78BMKFHATQ1xb_2E-80" target="BE0f78BMKFHATQ1xb_2E-71" edge="1">
          <mxGeometry width="50" height="50" relative="1" as="geometry">
            <mxPoint x="135.71428571428572" y="120" as="sourcePoint" />
            <mxPoint x="180.95238095238093" y="70" as="targetPoint" />
          </mxGeometry>
        </mxCell>
        <mxCell id="BE0f78BMKFHATQ1xb_2E-82" value="" style="endArrow=none;html=1;rounded=0;entryX=1;entryY=1;entryDx=0;entryDy=0;exitX=0;exitY=0;exitDx=0;exitDy=0;" parent="BE0f78BMKFHATQ1xb_2E-109" source="BE0f78BMKFHATQ1xb_2E-80" target="BE0f78BMKFHATQ1xb_2E-73" edge="1">
          <mxGeometry width="50" height="50" relative="1" as="geometry">
            <mxPoint x="90.47619047619047" y="130" as="sourcePoint" />
            <mxPoint x="135.71428571428572" y="80" as="targetPoint" />
          </mxGeometry>
        </mxCell>
        <mxCell id="BE0f78BMKFHATQ1xb_2E-83" value="" style="endArrow=none;html=1;rounded=0;entryX=1;entryY=0.5;entryDx=0;entryDy=0;exitX=0.007;exitY=0.422;exitDx=0;exitDy=0;exitPerimeter=0;" parent="BE0f78BMKFHATQ1xb_2E-109" source="BE0f78BMKFHATQ1xb_2E-70" target="BE0f78BMKFHATQ1xb_2E-80" edge="1">
          <mxGeometry width="50" height="50" relative="1" as="geometry">
            <mxPoint x="81.42857142857142" y="200" as="sourcePoint" />
            <mxPoint x="126.66666666666664" y="150" as="targetPoint" />
          </mxGeometry>
        </mxCell>
        <mxCell id="BE0f78BMKFHATQ1xb_2E-84" value="" style="endArrow=none;html=1;rounded=0;entryX=0;entryY=0.5;entryDx=0;entryDy=0;exitX=1;exitY=0.5;exitDx=0;exitDy=0;" parent="BE0f78BMKFHATQ1xb_2E-109" source="BE0f78BMKFHATQ1xb_2E-70" target="BE0f78BMKFHATQ1xb_2E-59" edge="1">
          <mxGeometry width="50" height="50" relative="1" as="geometry">
            <mxPoint x="108.57142857142856" y="290" as="sourcePoint" />
            <mxPoint x="153.8095238095238" y="240" as="targetPoint" />
          </mxGeometry>
        </mxCell>
        <mxCell id="BE0f78BMKFHATQ1xb_2E-90" value="&lt;font color=&quot;#0d27e7&quot; style=&quot;font-size: 10px;&quot;&gt;1&lt;/font&gt;" style="text;html=1;align=center;verticalAlign=middle;resizable=0;points=[];autosize=1;fontColor=#3e0925;" parent="BE0f78BMKFHATQ1xb_2E-109" vertex="1">
          <mxGeometry x="63.33333333333332" y="50" width="30" height="30" as="geometry" />
        </mxCell>
        <mxCell id="BE0f78BMKFHATQ1xb_2E-89" value="&lt;font color=&quot;#0d27e7&quot; style=&quot;font-size: 10px;&quot;&gt;1&lt;/font&gt;" style="text;html=1;align=center;verticalAlign=middle;resizable=0;points=[];autosize=1;fontColor=#3e0925;" parent="BE0f78BMKFHATQ1xb_2E-109" vertex="1">
          <mxGeometry x="45.238095238095234" y="83" width="30" height="30" as="geometry" />
        </mxCell>
        <mxCell id="BE0f78BMKFHATQ1xb_2E-92" value="&lt;font color=&quot;#0d27e7&quot; style=&quot;font-size: 10px;&quot;&gt;2&lt;/font&gt;" style="text;html=1;align=center;verticalAlign=middle;resizable=0;points=[];autosize=1;fontColor=#3e0925;" parent="BE0f78BMKFHATQ1xb_2E-109" vertex="1">
          <mxGeometry x="82.33333333333331" y="80" width="30" height="30" as="geometry" />
        </mxCell>
        <mxCell id="BE0f78BMKFHATQ1xb_2E-91" value="&lt;font color=&quot;#0d27e7&quot; style=&quot;font-size: 10px;&quot;&gt;1&lt;/font&gt;" style="text;html=1;align=center;verticalAlign=middle;resizable=0;points=[];autosize=1;fontColor=#3e0925;" parent="BE0f78BMKFHATQ1xb_2E-109" vertex="1">
          <mxGeometry x="135.71428571428572" y="74" width="30" height="30" as="geometry" />
        </mxCell>
        <mxCell id="BE0f78BMKFHATQ1xb_2E-94" value="&lt;font color=&quot;#0d27e7&quot; style=&quot;font-size: 10px;&quot;&gt;2&lt;/font&gt;" style="text;html=1;align=center;verticalAlign=middle;resizable=0;points=[];autosize=1;fontColor=#3e0925;" parent="BE0f78BMKFHATQ1xb_2E-109" vertex="1">
          <mxGeometry x="149.28571428571428" y="50" width="30" height="30" as="geometry" />
        </mxCell>
        <mxCell id="BE0f78BMKFHATQ1xb_2E-93" value="&lt;font color=&quot;#0d27e7&quot; style=&quot;font-size: 10px;&quot;&gt;1&lt;/font&gt;" style="text;html=1;align=center;verticalAlign=middle;resizable=0;points=[];autosize=1;fontColor=#3e0925;" parent="BE0f78BMKFHATQ1xb_2E-109" vertex="1">
          <mxGeometry x="170.54761904761904" y="80" width="30" height="30" as="geometry" />
        </mxCell>
        <mxCell id="BE0f78BMKFHATQ1xb_2E-95" value="&lt;font color=&quot;#0d27e7&quot; style=&quot;font-size: 10px;&quot;&gt;1&lt;/font&gt;" style="text;html=1;align=center;verticalAlign=middle;resizable=0;points=[];autosize=1;fontColor=#3e0925;" parent="BE0f78BMKFHATQ1xb_2E-109" vertex="1">
          <mxGeometry x="168.28571428571428" y="123" width="30" height="30" as="geometry" />
        </mxCell>
        <mxCell id="BE0f78BMKFHATQ1xb_2E-97" value="&lt;font color=&quot;#0d27e7&quot; style=&quot;font-size: 10px;&quot;&gt;1&lt;/font&gt;" style="text;html=1;align=center;verticalAlign=middle;resizable=0;points=[];autosize=1;fontColor=#3e0925;" parent="BE0f78BMKFHATQ1xb_2E-109" vertex="1">
          <mxGeometry x="226.19047619047615" y="74" width="30" height="30" as="geometry" />
        </mxCell>
        <mxCell id="BE0f78BMKFHATQ1xb_2E-96" value="&lt;font color=&quot;#0d27e7&quot; style=&quot;font-size: 10px;&quot;&gt;1&lt;/font&gt;" style="text;html=1;align=center;verticalAlign=middle;resizable=0;points=[];autosize=1;fontColor=#3e0925;" parent="BE0f78BMKFHATQ1xb_2E-109" vertex="1">
          <mxGeometry x="199.04761904761904" y="80" width="30" height="30" as="geometry" />
        </mxCell>
        <mxCell id="BE0f78BMKFHATQ1xb_2E-99" value="&lt;font color=&quot;#0d27e7&quot; style=&quot;font-size: 10px;&quot;&gt;1&lt;/font&gt;" style="text;html=1;align=center;verticalAlign=middle;resizable=0;points=[];autosize=1;fontColor=#3e0925;" parent="BE0f78BMKFHATQ1xb_2E-109" vertex="1">
          <mxGeometry x="250.6190476190476" y="50" width="30" height="30" as="geometry" />
        </mxCell>
        <mxCell id="BE0f78BMKFHATQ1xb_2E-98" value="&lt;font color=&quot;#0d27e7&quot; style=&quot;font-size: 10px;&quot;&gt;2&lt;/font&gt;" style="text;html=1;align=center;verticalAlign=middle;resizable=0;points=[];autosize=1;fontColor=#3e0925;" parent="BE0f78BMKFHATQ1xb_2E-109" vertex="1">
          <mxGeometry x="273.69047619047615" y="74" width="30" height="30" as="geometry" />
        </mxCell>
        <mxCell id="BE0f78BMKFHATQ1xb_2E-100" value="&lt;font color=&quot;#0d27e7&quot; style=&quot;font-size: 10px;&quot;&gt;2&lt;/font&gt;" style="text;html=1;align=center;verticalAlign=middle;resizable=0;points=[];autosize=1;fontColor=#3e0925;" parent="BE0f78BMKFHATQ1xb_2E-109" vertex="1">
          <mxGeometry x="302.19047619047615" y="74" width="30" height="30" as="geometry" />
        </mxCell>
        <mxCell id="BE0f78BMKFHATQ1xb_2E-102" value="&lt;font color=&quot;#0d27e7&quot; style=&quot;font-size: 10px;&quot;&gt;1&lt;/font&gt;" style="text;html=1;align=center;verticalAlign=middle;resizable=0;points=[];autosize=1;fontColor=#3e0925;" parent="BE0f78BMKFHATQ1xb_2E-109" vertex="1">
          <mxGeometry x="253.3333333333333" y="111" width="30" height="30" as="geometry" />
        </mxCell>
        <mxCell id="BE0f78BMKFHATQ1xb_2E-101" value="&lt;font color=&quot;#0d27e7&quot; style=&quot;font-size: 10px;&quot;&gt;3&lt;/font&gt;" style="text;html=1;align=center;verticalAlign=middle;resizable=0;points=[];autosize=1;fontColor=#3e0925;" parent="BE0f78BMKFHATQ1xb_2E-109" vertex="1">
          <mxGeometry x="279.1190476190476" y="115" width="30" height="30" as="geometry" />
        </mxCell>
        <mxCell id="BE0f78BMKFHATQ1xb_2E-104" value="&lt;font color=&quot;#0d27e7&quot; style=&quot;font-size: 10px;&quot;&gt;3&lt;/font&gt;" style="text;html=1;align=center;verticalAlign=middle;resizable=0;points=[];autosize=1;fontColor=#3e0925;" parent="BE0f78BMKFHATQ1xb_2E-109" vertex="1">
          <mxGeometry x="316.66666666666663" y="115" width="30" height="30" as="geometry" />
        </mxCell>
        <mxCell id="BE0f78BMKFHATQ1xb_2E-103" value="&lt;font color=&quot;#0d27e7&quot; style=&quot;font-size: 10px;&quot;&gt;1&lt;/font&gt;" style="text;html=1;align=center;verticalAlign=middle;resizable=0;points=[];autosize=1;fontColor=#3e0925;" parent="BE0f78BMKFHATQ1xb_2E-109" vertex="1">
          <mxGeometry x="149.28714285714284" y="10" width="30" height="30" as="geometry" />
        </mxCell>
        <mxCell id="hCmb2iwXNuzIuCA0WMjc-1" value="" style="shape=requiredInterface;html=1;verticalLabelPosition=bottom;sketch=0;direction=north;" parent="BE0f78BMKFHATQ1xb_2E-109" vertex="1">
          <mxGeometry x="30" y="10" width="280" height="30" as="geometry" />
        </mxCell>
        <mxCell id="BE0f78BMKFHATQ1xb_2E-157" value="" style="group" parent="1" vertex="1" connectable="0">
          <mxGeometry x="50" y="-1040" width="227.6380010504604" height="250" as="geometry" />
        </mxCell>
        <mxCell id="BE0f78BMKFHATQ1xb_2E-1" value="bc" style="ellipse;whiteSpace=wrap;html=1;aspect=fixed;fontStyle=0" parent="BE0f78BMKFHATQ1xb_2E-157" vertex="1">
          <mxGeometry x="174.10358565737056" y="184.88745980707392" width="16.881028938906752" height="16.881028938906752" as="geometry" />
        </mxCell>
        <mxCell id="BE0f78BMKFHATQ1xb_2E-2" value="dbc" style="ellipse;whiteSpace=wrap;html=1;aspect=fixed;fontStyle=0" parent="BE0f78BMKFHATQ1xb_2E-157" vertex="1">
          <mxGeometry x="138.3665338645419" y="136.6559485530547" width="22" height="22" as="geometry" />
        </mxCell>
        <mxCell id="BE0f78BMKFHATQ1xb_2E-3" value="" style="endArrow=none;html=1;rounded=0;exitX=0.5;exitY=0;exitDx=0;exitDy=0;entryX=1;entryY=1;entryDx=0;entryDy=0;fontStyle=0" parent="BE0f78BMKFHATQ1xb_2E-157" source="BE0f78BMKFHATQ1xb_2E-14" target="BE0f78BMKFHATQ1xb_2E-16" edge="1">
          <mxGeometry width="50" height="50" relative="1" as="geometry">
            <mxPoint x="59.56175298804783" y="188.90675241157555" as="sourcePoint" />
            <mxPoint x="57.7956978012478" y="35.61418077901067" as="targetPoint" />
          </mxGeometry>
        </mxCell>
        <mxCell id="BE0f78BMKFHATQ1xb_2E-4" value="" style="endArrow=none;html=1;rounded=0;exitX=0.5;exitY=0;exitDx=0;exitDy=0;entryX=0;entryY=1;entryDx=0;entryDy=0;fontStyle=0" parent="BE0f78BMKFHATQ1xb_2E-157" source="BE0f78BMKFHATQ1xb_2E-13" target="BE0f78BMKFHATQ1xb_2E-14" edge="1">
          <mxGeometry width="50" height="50" relative="1" as="geometry">
            <mxPoint x="-68.72904990719303" y="182.47934966694197" as="sourcePoint" />
            <mxPoint x="-1.8287190171101884" y="113.34058602437676" as="targetPoint" />
          </mxGeometry>
        </mxCell>
        <mxCell id="BE0f78BMKFHATQ1xb_2E-5" value="" style="endArrow=none;html=1;rounded=0;exitX=0.5;exitY=0;exitDx=0;exitDy=0;entryX=0;entryY=1;entryDx=0;entryDy=0;fontStyle=0" parent="BE0f78BMKFHATQ1xb_2E-157" source="BE0f78BMKFHATQ1xb_2E-10" target="BE0f78BMKFHATQ1xb_2E-2" edge="1">
          <mxGeometry width="50" height="50" relative="1" as="geometry">
            <mxPoint x="-35.733101487229305" y="269.29606992417666" as="sourcePoint" />
            <mxPoint x="82.47011952191224" y="152.73311897106112" as="targetPoint" />
          </mxGeometry>
        </mxCell>
        <mxCell id="BE0f78BMKFHATQ1xb_2E-7" value="" style="endArrow=none;html=1;rounded=0;exitX=0.5;exitY=0;exitDx=0;exitDy=0;entryX=0;entryY=1;entryDx=0;entryDy=0;fontStyle=0" parent="BE0f78BMKFHATQ1xb_2E-157" source="BE0f78BMKFHATQ1xb_2E-15" target="BE0f78BMKFHATQ1xb_2E-16" edge="1">
          <mxGeometry width="50" height="50" relative="1" as="geometry">
            <mxPoint x="59.56175298804783" y="188.90675241157555" as="sourcePoint" />
            <mxPoint x="96.99268912682373" y="33.60979685050961" as="targetPoint" />
          </mxGeometry>
        </mxCell>
        <mxCell id="BE0f78BMKFHATQ1xb_2E-8" value="" style="endArrow=none;html=1;rounded=0;entryX=0;entryY=1;entryDx=0;entryDy=0;exitX=0.5;exitY=0;exitDx=0;exitDy=0;fontStyle=0" parent="BE0f78BMKFHATQ1xb_2E-157" source="BE0f78BMKFHATQ1xb_2E-11" target="BE0f78BMKFHATQ1xb_2E-1" edge="1">
          <mxGeometry width="50" height="50" relative="1" as="geometry">
            <mxPoint x="117.286886347787" y="182.47934966694197" as="sourcePoint" />
            <mxPoint x="105.37848605577688" y="148.7138263665595" as="targetPoint" />
          </mxGeometry>
        </mxCell>
        <mxCell id="BE0f78BMKFHATQ1xb_2E-9" value="" style="endArrow=none;html=1;rounded=0;entryX=1;entryY=1;entryDx=0;entryDy=0;exitX=0.5;exitY=0;exitDx=0;exitDy=0;fontStyle=0" parent="BE0f78BMKFHATQ1xb_2E-157" source="BE0f78BMKFHATQ1xb_2E-12" target="BE0f78BMKFHATQ1xb_2E-1" edge="1">
          <mxGeometry width="50" height="50" relative="1" as="geometry">
            <mxPoint x="270.32267540520115" y="184.89092522964313" as="sourcePoint" />
            <mxPoint x="105.37848605577688" y="148.7138263665595" as="targetPoint" />
          </mxGeometry>
        </mxCell>
        <mxCell id="BE0f78BMKFHATQ1xb_2E-10" value="&lt;font style=&quot;font-size: 12px;&quot;&gt;d&lt;/font&gt;" style="ellipse;whiteSpace=wrap;html=1;aspect=fixed;fontStyle=0" parent="BE0f78BMKFHATQ1xb_2E-157" vertex="1">
          <mxGeometry x="99.88047808764941" y="184.88745980707392" width="16.881028938906752" height="16.881028938906752" as="geometry" />
        </mxCell>
        <mxCell id="BE0f78BMKFHATQ1xb_2E-11" value="&lt;font style=&quot;font-size: 12px;&quot;&gt;b&lt;/font&gt;" style="ellipse;whiteSpace=wrap;html=1;aspect=fixed;fontStyle=0" parent="BE0f78BMKFHATQ1xb_2E-157" vertex="1">
          <mxGeometry x="146.613545816733" y="233.11897106109325" width="16.881028938906752" height="16.881028938906752" as="geometry" />
        </mxCell>
        <mxCell id="BE0f78BMKFHATQ1xb_2E-12" value="&lt;font style=&quot;font-size: 12px;&quot;&gt;c&lt;/font&gt;" style="ellipse;whiteSpace=wrap;html=1;aspect=fixed;fontStyle=0" parent="BE0f78BMKFHATQ1xb_2E-157" vertex="1">
          <mxGeometry x="210.75697211155375" y="233.11897106109325" width="16.881028938906752" height="16.881028938906752" as="geometry" />
        </mxCell>
        <mxCell id="BE0f78BMKFHATQ1xb_2E-13" value="a" style="ellipse;whiteSpace=wrap;html=1;aspect=fixed;fontStyle=0" parent="BE0f78BMKFHATQ1xb_2E-157" vertex="1">
          <mxGeometry x="45.81673306772905" y="128.61736334405145" width="16.881028938906752" height="16.881028938906752" as="geometry" />
        </mxCell>
        <mxCell id="BE0f78BMKFHATQ1xb_2E-14" value="abcd" style="ellipse;whiteSpace=wrap;html=1;aspect=fixed;fontStyle=0" parent="BE0f78BMKFHATQ1xb_2E-157" vertex="1">
          <mxGeometry x="90.71713147410355" y="72.34726688102887" width="28" height="28" as="geometry" />
        </mxCell>
        <mxCell id="BE0f78BMKFHATQ1xb_2E-15" value="&lt;font style=&quot;font-size: 12px;&quot;&gt;e&lt;/font&gt;" style="ellipse;whiteSpace=wrap;html=1;aspect=fixed;fontStyle=0" parent="BE0f78BMKFHATQ1xb_2E-157" vertex="1">
          <mxGeometry y="76.3665594855305" width="16.881028938906752" height="16.881028938906752" as="geometry" />
        </mxCell>
        <mxCell id="BE0f78BMKFHATQ1xb_2E-16" value="&lt;font style=&quot;font-size: 12px;&quot;&gt;abcde&lt;/font&gt;" style="ellipse;whiteSpace=wrap;html=1;aspect=fixed;fontStyle=0" parent="BE0f78BMKFHATQ1xb_2E-157" vertex="1">
          <mxGeometry x="36.653386454183305" width="34" height="34" as="geometry" />
        </mxCell>
        <mxCell id="BE0f78BMKFHATQ1xb_2E-17" value="" style="endArrow=none;html=1;rounded=0;entryX=1;entryY=1;entryDx=0;entryDy=0;exitX=0.5;exitY=0;exitDx=0;exitDy=0;fontStyle=0" parent="BE0f78BMKFHATQ1xb_2E-157" source="BE0f78BMKFHATQ1xb_2E-2" target="BE0f78BMKFHATQ1xb_2E-14" edge="1">
          <mxGeometry width="50" height="50" relative="1" as="geometry">
            <mxPoint x="50.398406374501974" y="171.22186495176845" as="sourcePoint" />
            <mxPoint x="96.21513944223102" y="131.0289389067524" as="targetPoint" />
          </mxGeometry>
        </mxCell>
        <mxCell id="BE0f78BMKFHATQ1xb_2E-19" value="" style="endArrow=none;html=1;rounded=0;entryX=1;entryY=1;entryDx=0;entryDy=0;exitX=0.5;exitY=0;exitDx=0;exitDy=0;fontStyle=0" parent="BE0f78BMKFHATQ1xb_2E-157" source="BE0f78BMKFHATQ1xb_2E-1" target="BE0f78BMKFHATQ1xb_2E-2" edge="1">
          <mxGeometry width="50" height="50" relative="1" as="geometry">
            <mxPoint x="137.45019920318737" y="225.08038585209" as="sourcePoint" />
            <mxPoint x="183.2669322709164" y="184.88745980707392" as="targetPoint" />
          </mxGeometry>
        </mxCell>
        <mxCell id="BE0f78BMKFHATQ1xb_2E-158" value="" style="group" parent="1" vertex="1" connectable="0">
          <mxGeometry x="342.36" y="-440" width="227.6380010504604" height="250" as="geometry" />
        </mxCell>
        <mxCell id="BE0f78BMKFHATQ1xb_2E-159" value="bc" style="ellipse;whiteSpace=wrap;html=1;aspect=fixed;fontStyle=0" parent="BE0f78BMKFHATQ1xb_2E-158" vertex="1">
          <mxGeometry x="174.10358565737056" y="184.88745980707392" width="16.881028938906752" height="16.881028938906752" as="geometry" />
        </mxCell>
        <mxCell id="BE0f78BMKFHATQ1xb_2E-160" value="abc" style="ellipse;whiteSpace=wrap;html=1;aspect=fixed;fontStyle=0" parent="BE0f78BMKFHATQ1xb_2E-158" vertex="1">
          <mxGeometry x="138.3665338645419" y="136.6559485530547" width="20" height="20" as="geometry" />
        </mxCell>
        <mxCell id="BE0f78BMKFHATQ1xb_2E-161" value="" style="endArrow=none;html=1;rounded=0;exitX=0.5;exitY=0;exitDx=0;exitDy=0;entryX=1;entryY=1;entryDx=0;entryDy=0;fontStyle=0" parent="BE0f78BMKFHATQ1xb_2E-158" source="BE0f78BMKFHATQ1xb_2E-171" target="BE0f78BMKFHATQ1xb_2E-173" edge="1">
          <mxGeometry width="50" height="50" relative="1" as="geometry">
            <mxPoint x="59.56175298804783" y="188.90675241157555" as="sourcePoint" />
            <mxPoint x="57.7956978012478" y="35.61418077901067" as="targetPoint" />
          </mxGeometry>
        </mxCell>
        <mxCell id="BE0f78BMKFHATQ1xb_2E-162" value="" style="endArrow=none;html=1;rounded=0;exitX=0.5;exitY=0;exitDx=0;exitDy=0;entryX=0;entryY=1;entryDx=0;entryDy=0;fontStyle=0" parent="BE0f78BMKFHATQ1xb_2E-158" source="BE0f78BMKFHATQ1xb_2E-170" target="BE0f78BMKFHATQ1xb_2E-171" edge="1">
          <mxGeometry width="50" height="50" relative="1" as="geometry">
            <mxPoint x="-68.72904990719303" y="182.47934966694197" as="sourcePoint" />
            <mxPoint x="-1.8287190171101884" y="113.34058602437676" as="targetPoint" />
          </mxGeometry>
        </mxCell>
        <mxCell id="BE0f78BMKFHATQ1xb_2E-163" value="" style="endArrow=none;html=1;rounded=0;exitX=0.5;exitY=0;exitDx=0;exitDy=0;entryX=0;entryY=1;entryDx=0;entryDy=0;fontStyle=0" parent="BE0f78BMKFHATQ1xb_2E-158" source="BE0f78BMKFHATQ1xb_2E-167" target="BE0f78BMKFHATQ1xb_2E-160" edge="1">
          <mxGeometry width="50" height="50" relative="1" as="geometry">
            <mxPoint x="-35.733101487229305" y="269.29606992417666" as="sourcePoint" />
            <mxPoint x="82.47011952191224" y="152.73311897106112" as="targetPoint" />
          </mxGeometry>
        </mxCell>
        <mxCell id="BE0f78BMKFHATQ1xb_2E-164" value="" style="endArrow=none;html=1;rounded=0;exitX=0.5;exitY=0;exitDx=0;exitDy=0;entryX=0;entryY=1;entryDx=0;entryDy=0;fontStyle=0" parent="BE0f78BMKFHATQ1xb_2E-158" source="BE0f78BMKFHATQ1xb_2E-172" target="BE0f78BMKFHATQ1xb_2E-173" edge="1">
          <mxGeometry width="50" height="50" relative="1" as="geometry">
            <mxPoint x="59.56175298804783" y="188.90675241157555" as="sourcePoint" />
            <mxPoint x="96.99268912682373" y="33.60979685050961" as="targetPoint" />
          </mxGeometry>
        </mxCell>
        <mxCell id="BE0f78BMKFHATQ1xb_2E-165" value="" style="endArrow=none;html=1;rounded=0;entryX=0;entryY=1;entryDx=0;entryDy=0;exitX=0.5;exitY=0;exitDx=0;exitDy=0;fontStyle=0" parent="BE0f78BMKFHATQ1xb_2E-158" source="BE0f78BMKFHATQ1xb_2E-168" target="BE0f78BMKFHATQ1xb_2E-159" edge="1">
          <mxGeometry width="50" height="50" relative="1" as="geometry">
            <mxPoint x="117.286886347787" y="182.47934966694197" as="sourcePoint" />
            <mxPoint x="105.37848605577688" y="148.7138263665595" as="targetPoint" />
          </mxGeometry>
        </mxCell>
        <mxCell id="BE0f78BMKFHATQ1xb_2E-166" value="" style="endArrow=none;html=1;rounded=0;entryX=1;entryY=1;entryDx=0;entryDy=0;exitX=0.5;exitY=0;exitDx=0;exitDy=0;fontStyle=0" parent="BE0f78BMKFHATQ1xb_2E-158" source="BE0f78BMKFHATQ1xb_2E-169" target="BE0f78BMKFHATQ1xb_2E-159" edge="1">
          <mxGeometry width="50" height="50" relative="1" as="geometry">
            <mxPoint x="270.32267540520115" y="184.89092522964313" as="sourcePoint" />
            <mxPoint x="105.37848605577688" y="148.7138263665595" as="targetPoint" />
          </mxGeometry>
        </mxCell>
        <mxCell id="BE0f78BMKFHATQ1xb_2E-167" value="&lt;font style=&quot;font-size: 12px;&quot;&gt;a&lt;/font&gt;" style="ellipse;whiteSpace=wrap;html=1;aspect=fixed;fontStyle=0" parent="BE0f78BMKFHATQ1xb_2E-158" vertex="1">
          <mxGeometry x="99.88047808764941" y="184.88745980707392" width="16.881028938906752" height="16.881028938906752" as="geometry" />
        </mxCell>
        <mxCell id="BE0f78BMKFHATQ1xb_2E-168" value="&lt;font style=&quot;font-size: 12px;&quot;&gt;b&lt;/font&gt;" style="ellipse;whiteSpace=wrap;html=1;aspect=fixed;fontStyle=0" parent="BE0f78BMKFHATQ1xb_2E-158" vertex="1">
          <mxGeometry x="146.613545816733" y="233.11897106109325" width="16.881028938906752" height="16.881028938906752" as="geometry" />
        </mxCell>
        <mxCell id="BE0f78BMKFHATQ1xb_2E-169" value="&lt;font style=&quot;font-size: 12px;&quot;&gt;c&lt;/font&gt;" style="ellipse;whiteSpace=wrap;html=1;aspect=fixed;fontStyle=0" parent="BE0f78BMKFHATQ1xb_2E-158" vertex="1">
          <mxGeometry x="197.63697211155375" y="233.11897106109325" width="16.881028938906752" height="16.881028938906752" as="geometry" />
        </mxCell>
        <mxCell id="BE0f78BMKFHATQ1xb_2E-170" value="d" style="ellipse;whiteSpace=wrap;html=1;aspect=fixed;fontStyle=0" parent="BE0f78BMKFHATQ1xb_2E-158" vertex="1">
          <mxGeometry x="45.81673306772905" y="128.61736334405145" width="16.881028938906752" height="16.881028938906752" as="geometry" />
        </mxCell>
        <mxCell id="BE0f78BMKFHATQ1xb_2E-171" value="abcd" style="ellipse;whiteSpace=wrap;html=1;aspect=fixed;fontStyle=0" parent="BE0f78BMKFHATQ1xb_2E-158" vertex="1">
          <mxGeometry x="90.71713147410355" y="72.34726688102887" width="28" height="28" as="geometry" />
        </mxCell>
        <mxCell id="BE0f78BMKFHATQ1xb_2E-172" value="&lt;font style=&quot;font-size: 12px;&quot;&gt;e&lt;/font&gt;" style="ellipse;whiteSpace=wrap;html=1;aspect=fixed;fontStyle=0" parent="BE0f78BMKFHATQ1xb_2E-158" vertex="1">
          <mxGeometry y="76.3665594855305" width="16.881028938906752" height="16.881028938906752" as="geometry" />
        </mxCell>
        <mxCell id="BE0f78BMKFHATQ1xb_2E-173" value="&lt;font style=&quot;font-size: 12px;&quot;&gt;abcde&lt;/font&gt;" style="ellipse;whiteSpace=wrap;html=1;aspect=fixed;fontStyle=0" parent="BE0f78BMKFHATQ1xb_2E-158" vertex="1">
          <mxGeometry x="36.653386454183305" width="34" height="34" as="geometry" />
        </mxCell>
        <mxCell id="BE0f78BMKFHATQ1xb_2E-174" value="" style="endArrow=none;html=1;rounded=0;entryX=1;entryY=1;entryDx=0;entryDy=0;exitX=0.5;exitY=0;exitDx=0;exitDy=0;fontStyle=0" parent="BE0f78BMKFHATQ1xb_2E-158" source="BE0f78BMKFHATQ1xb_2E-160" target="BE0f78BMKFHATQ1xb_2E-171" edge="1">
          <mxGeometry width="50" height="50" relative="1" as="geometry">
            <mxPoint x="50.398406374501974" y="171.22186495176845" as="sourcePoint" />
            <mxPoint x="96.21513944223102" y="131.0289389067524" as="targetPoint" />
          </mxGeometry>
        </mxCell>
        <mxCell id="BE0f78BMKFHATQ1xb_2E-175" value="" style="endArrow=none;html=1;rounded=0;entryX=1;entryY=1;entryDx=0;entryDy=0;exitX=0.5;exitY=0;exitDx=0;exitDy=0;fontStyle=0" parent="BE0f78BMKFHATQ1xb_2E-158" source="BE0f78BMKFHATQ1xb_2E-159" target="BE0f78BMKFHATQ1xb_2E-160" edge="1">
          <mxGeometry width="50" height="50" relative="1" as="geometry">
            <mxPoint x="137.45019920318737" y="225.08038585209" as="sourcePoint" />
            <mxPoint x="183.2669322709164" y="184.88745980707392" as="targetPoint" />
          </mxGeometry>
        </mxCell>
        <mxCell id="BE0f78BMKFHATQ1xb_2E-178" value="&lt;font style=&quot;font-size: 16px;&quot;&gt;Step-1&lt;/font&gt;" style="rounded=1;whiteSpace=wrap;html=1;dashed=1;" parent="1" vertex="1">
          <mxGeometry x="54" y="-1070" width="96" height="30" as="geometry" />
        </mxCell>
        <mxCell id="BE0f78BMKFHATQ1xb_2E-180" value="&lt;font style=&quot;font-size: 16px;&quot;&gt;Step-4&lt;/font&gt;" style="rounded=1;whiteSpace=wrap;html=1;dashed=1;" parent="1" vertex="1">
          <mxGeometry x="311" y="-480" width="96" height="30" as="geometry" />
        </mxCell>
        <mxCell id="BE0f78BMKFHATQ1xb_2E-182" value="" style="endArrow=classic;html=1;rounded=0;exitX=0.242;exitY=0.997;exitDx=0;exitDy=0;exitPerimeter=0;entryX=0.551;entryY=-0.004;entryDx=0;entryDy=0;entryPerimeter=0;" parent="1" source="BE0f78BMKFHATQ1xb_2E-108" target="BE0f78BMKFHATQ1xb_2E-107" edge="1">
          <mxGeometry width="50" height="50" relative="1" as="geometry">
            <mxPoint x="250" y="-700" as="sourcePoint" />
            <mxPoint x="310" y="-700" as="targetPoint" />
          </mxGeometry>
        </mxCell>
        <mxCell id="BE0f78BMKFHATQ1xb_2E-183" value="" style="endArrow=classic;html=1;rounded=0;exitX=0.283;exitY=1.001;exitDx=0;exitDy=0;exitPerimeter=0;" parent="1" edge="1">
          <mxGeometry width="50" height="50" relative="1" as="geometry">
            <mxPoint x="540" y="-510" as="sourcePoint" />
            <mxPoint x="539" y="-450" as="targetPoint" />
          </mxGeometry>
        </mxCell>
        <mxCell id="BE0f78BMKFHATQ1xb_2E-184" value="" style="endArrow=classic;html=1;rounded=0;entryX=0;entryY=0.5;entryDx=0;entryDy=0;exitX=1;exitY=0.5;exitDx=0;exitDy=0;" parent="1" source="BE0f78BMKFHATQ1xb_2E-107" target="BE0f78BMKFHATQ1xb_2E-111" edge="1">
          <mxGeometry width="50" height="50" relative="1" as="geometry">
            <mxPoint x="440" y="-570" as="sourcePoint" />
            <mxPoint x="490" y="-620" as="targetPoint" />
          </mxGeometry>
        </mxCell>
        <mxCell id="BE0f78BMKFHATQ1xb_2E-186" value="" style="group" parent="1" vertex="1" connectable="0">
          <mxGeometry x="425" y="-720" width="420" height="210" as="geometry" />
        </mxCell>
        <mxCell id="BE0f78BMKFHATQ1xb_2E-111" value="" style="rounded=1;whiteSpace=wrap;html=1;dashed=1;dashPattern=8 8;container=0;" parent="BE0f78BMKFHATQ1xb_2E-186" vertex="1">
          <mxGeometry y="30" width="420" height="180" as="geometry" />
        </mxCell>
        <mxCell id="BE0f78BMKFHATQ1xb_2E-112" value="bc" style="ellipse;whiteSpace=wrap;html=1;aspect=fixed;fontStyle=0;container=0;" parent="BE0f78BMKFHATQ1xb_2E-186" vertex="1">
          <mxGeometry x="340" y="129" width="24" height="24" as="geometry" />
        </mxCell>
        <mxCell id="BE0f78BMKFHATQ1xb_2E-113" value="abc" style="ellipse;whiteSpace=wrap;html=1;aspect=fixed;fontStyle=0;container=0;" parent="BE0f78BMKFHATQ1xb_2E-186" vertex="1">
          <mxGeometry x="335" y="70" width="34" height="34" as="geometry" />
        </mxCell>
        <mxCell id="BE0f78BMKFHATQ1xb_2E-114" value="" style="endArrow=none;html=1;rounded=0;exitX=0;exitY=0.5;exitDx=0;exitDy=0;entryX=1;entryY=0.5;entryDx=0;entryDy=0;fontStyle=0" parent="BE0f78BMKFHATQ1xb_2E-186" source="BE0f78BMKFHATQ1xb_2E-124" target="BE0f78BMKFHATQ1xb_2E-126" edge="1">
          <mxGeometry width="50" height="50" relative="1" as="geometry">
            <mxPoint x="141" y="305" as="sourcePoint" />
            <mxPoint x="139.0726962961444" y="114.30404088908926" as="targetPoint" />
          </mxGeometry>
        </mxCell>
        <mxCell id="BE0f78BMKFHATQ1xb_2E-115" value="" style="endArrow=none;html=1;rounded=0;exitX=0.5;exitY=0;exitDx=0;exitDy=0;entryX=0.5;entryY=1;entryDx=0;entryDy=0;fontStyle=0;dashed=1;" parent="BE0f78BMKFHATQ1xb_2E-186" source="BE0f78BMKFHATQ1xb_2E-123" target="BE0f78BMKFHATQ1xb_2E-124" edge="1">
          <mxGeometry width="50" height="50" relative="1" as="geometry">
            <mxPoint x="0.9956890143241708" y="297.00431098567583" as="sourcePoint" />
            <mxPoint x="74.00431098567537" y="210.99568901432463" as="targetPoint" />
          </mxGeometry>
        </mxCell>
        <mxCell id="BE0f78BMKFHATQ1xb_2E-116" value="" style="endArrow=none;html=1;rounded=0;exitX=1;exitY=0;exitDx=0;exitDy=0;entryX=0;entryY=1;entryDx=0;entryDy=0;fontStyle=0" parent="BE0f78BMKFHATQ1xb_2E-186" source="BE0f78BMKFHATQ1xb_2E-120" target="BE0f78BMKFHATQ1xb_2E-113" edge="1">
          <mxGeometry width="50" height="50" relative="1" as="geometry">
            <mxPoint x="128.00431098567583" y="405.00431098567583" as="sourcePoint" />
            <mxPoint x="323.1256313292355" y="269.8743686707645" as="targetPoint" />
          </mxGeometry>
        </mxCell>
        <mxCell id="BE0f78BMKFHATQ1xb_2E-117" value="" style="endArrow=none;html=1;rounded=0;exitX=1;exitY=0.5;exitDx=0;exitDy=0;entryX=0;entryY=0.5;entryDx=0;entryDy=0;fontStyle=0" parent="BE0f78BMKFHATQ1xb_2E-186" source="BE0f78BMKFHATQ1xb_2E-125" target="BE0f78BMKFHATQ1xb_2E-126" edge="1">
          <mxGeometry width="50" height="50" relative="1" as="geometry">
            <mxPoint x="141" y="305" as="sourcePoint" />
            <mxPoint x="181.84854335144678" y="111.81058728203402" as="targetPoint" />
          </mxGeometry>
        </mxCell>
        <mxCell id="BE0f78BMKFHATQ1xb_2E-118" value="" style="endArrow=none;html=1;rounded=0;entryX=0;entryY=1;entryDx=0;entryDy=0;exitX=0.5;exitY=0;exitDx=0;exitDy=0;fontStyle=0" parent="BE0f78BMKFHATQ1xb_2E-186" source="BE0f78BMKFHATQ1xb_2E-121" target="BE0f78BMKFHATQ1xb_2E-112" edge="1">
          <mxGeometry width="50" height="50" relative="1" as="geometry">
            <mxPoint x="203.99568901432417" y="297.00431098567583" as="sourcePoint" />
            <mxPoint x="191" y="255" as="targetPoint" />
          </mxGeometry>
        </mxCell>
        <mxCell id="BE0f78BMKFHATQ1xb_2E-119" value="" style="endArrow=none;html=1;rounded=0;entryX=1;entryY=1;entryDx=0;entryDy=0;exitX=0.5;exitY=0;exitDx=0;exitDy=0;fontStyle=0" parent="BE0f78BMKFHATQ1xb_2E-186" source="BE0f78BMKFHATQ1xb_2E-122" target="BE0f78BMKFHATQ1xb_2E-112" edge="1">
          <mxGeometry width="50" height="50" relative="1" as="geometry">
            <mxPoint x="371.00431098567606" y="300.00431098567606" as="sourcePoint" />
            <mxPoint x="191" y="255" as="targetPoint" />
          </mxGeometry>
        </mxCell>
        <mxCell id="BE0f78BMKFHATQ1xb_2E-120" value="&lt;font style=&quot;font-size: 12px;&quot;&gt;a&lt;/font&gt;" style="ellipse;whiteSpace=wrap;html=1;aspect=fixed;fontStyle=0;container=0;" parent="BE0f78BMKFHATQ1xb_2E-186" vertex="1">
          <mxGeometry x="287.5" y="124" width="21" height="21" as="geometry" />
        </mxCell>
        <mxCell id="BE0f78BMKFHATQ1xb_2E-121" value="&lt;font style=&quot;font-size: 12px;&quot;&gt;b&lt;/font&gt;" style="ellipse;whiteSpace=wrap;html=1;aspect=fixed;fontStyle=0;container=0;" parent="BE0f78BMKFHATQ1xb_2E-186" vertex="1">
          <mxGeometry x="319" y="175" width="21" height="21" as="geometry" />
        </mxCell>
        <mxCell id="BE0f78BMKFHATQ1xb_2E-122" value="&lt;font style=&quot;font-size: 12px;&quot;&gt;c&lt;/font&gt;" style="ellipse;whiteSpace=wrap;html=1;aspect=fixed;fontStyle=0;container=0;" parent="BE0f78BMKFHATQ1xb_2E-186" vertex="1">
          <mxGeometry x="360" y="175" width="21" height="21" as="geometry" />
        </mxCell>
        <mxCell id="BE0f78BMKFHATQ1xb_2E-123" value="bcd" style="ellipse;whiteSpace=wrap;html=1;aspect=fixed;fontStyle=0;container=0;" parent="BE0f78BMKFHATQ1xb_2E-186" vertex="1">
          <mxGeometry x="226.5" y="150" width="25" height="25" as="geometry" />
        </mxCell>
        <mxCell id="BE0f78BMKFHATQ1xb_2E-124" value="abcd" style="ellipse;whiteSpace=wrap;html=1;aspect=fixed;fontStyle=0;container=0;" parent="BE0f78BMKFHATQ1xb_2E-186" vertex="1">
          <mxGeometry x="222" y="70" width="34" height="34" as="geometry" />
        </mxCell>
        <mxCell id="BE0f78BMKFHATQ1xb_2E-125" value="&lt;font style=&quot;font-size: 12px;&quot;&gt;abce&lt;/font&gt;" style="ellipse;whiteSpace=wrap;html=1;aspect=fixed;fontStyle=0;container=0;" parent="BE0f78BMKFHATQ1xb_2E-186" vertex="1">
          <mxGeometry x="26" y="70" width="34" height="34" as="geometry" />
        </mxCell>
        <mxCell id="BE0f78BMKFHATQ1xb_2E-126" value="&lt;font style=&quot;font-size: 12px;&quot;&gt;abcde&lt;/font&gt;" style="ellipse;whiteSpace=wrap;html=1;aspect=fixed;fontStyle=0;container=0;" parent="BE0f78BMKFHATQ1xb_2E-186" vertex="1">
          <mxGeometry x="121" y="70" width="34" height="34" as="geometry" />
        </mxCell>
        <mxCell id="BE0f78BMKFHATQ1xb_2E-127" value="" style="endArrow=none;html=1;rounded=0;entryX=1;entryY=0.5;entryDx=0;entryDy=0;exitX=0;exitY=0.5;exitDx=0;exitDy=0;fontStyle=0;dashed=1;" parent="BE0f78BMKFHATQ1xb_2E-186" source="BE0f78BMKFHATQ1xb_2E-113" target="BE0f78BMKFHATQ1xb_2E-124" edge="1">
          <mxGeometry width="50" height="50" relative="1" as="geometry">
            <mxPoint x="131" y="283" as="sourcePoint" />
            <mxPoint x="181" y="233" as="targetPoint" />
          </mxGeometry>
        </mxCell>
        <mxCell id="BE0f78BMKFHATQ1xb_2E-128" value="" style="endArrow=none;html=1;rounded=0;entryX=0.5;entryY=1;entryDx=0;entryDy=0;exitX=0.5;exitY=0;exitDx=0;exitDy=0;fontStyle=0" parent="BE0f78BMKFHATQ1xb_2E-186" source="BE0f78BMKFHATQ1xb_2E-112" target="BE0f78BMKFHATQ1xb_2E-113" edge="1">
          <mxGeometry width="50" height="50" relative="1" as="geometry">
            <mxPoint x="226" y="350" as="sourcePoint" />
            <mxPoint x="276" y="300" as="targetPoint" />
          </mxGeometry>
        </mxCell>
        <mxCell id="BE0f78BMKFHATQ1xb_2E-130" value="&lt;font style=&quot;font-size: 12px;&quot;&gt;e&lt;/font&gt;" style="ellipse;whiteSpace=wrap;html=1;aspect=fixed;fontStyle=0;container=0;" parent="BE0f78BMKFHATQ1xb_2E-186" vertex="1">
          <mxGeometry x="76" y="150" width="21" height="21" as="geometry" />
        </mxCell>
        <mxCell id="BE0f78BMKFHATQ1xb_2E-132" value="" style="endArrow=none;html=1;rounded=0;entryX=0.5;entryY=1;entryDx=0;entryDy=0;exitX=1;exitY=0;exitDx=0;exitDy=0;" parent="BE0f78BMKFHATQ1xb_2E-186" source="BE0f78BMKFHATQ1xb_2E-130" target="BE0f78BMKFHATQ1xb_2E-126" edge="1">
          <mxGeometry width="50" height="50" relative="1" as="geometry">
            <mxPoint x="86" y="160" as="sourcePoint" />
            <mxPoint x="136" y="110" as="targetPoint" />
          </mxGeometry>
        </mxCell>
        <mxCell id="BE0f78BMKFHATQ1xb_2E-133" value="&lt;font style=&quot;font-size: 12px;&quot;&gt;d&lt;/font&gt;" style="ellipse;whiteSpace=wrap;html=1;aspect=fixed;fontStyle=0;container=0;" parent="BE0f78BMKFHATQ1xb_2E-186" vertex="1">
          <mxGeometry x="171" y="150" width="21" height="21" as="geometry" />
        </mxCell>
        <mxCell id="BE0f78BMKFHATQ1xb_2E-134" value="" style="endArrow=none;html=1;rounded=0;entryX=0;entryY=1;entryDx=0;entryDy=0;exitX=1;exitY=0;exitDx=0;exitDy=0;" parent="BE0f78BMKFHATQ1xb_2E-186" source="BE0f78BMKFHATQ1xb_2E-133" target="BE0f78BMKFHATQ1xb_2E-124" edge="1">
          <mxGeometry width="50" height="50" relative="1" as="geometry">
            <mxPoint x="156" y="150" as="sourcePoint" />
            <mxPoint x="206" y="100" as="targetPoint" />
          </mxGeometry>
        </mxCell>
        <mxCell id="BE0f78BMKFHATQ1xb_2E-139" value="&lt;font color=&quot;#0d27e7&quot; style=&quot;font-size: 10px;&quot;&gt;1&lt;/font&gt;" style="text;html=1;align=center;verticalAlign=middle;resizable=0;points=[];autosize=1;fontColor=#3e0925;container=0;" parent="BE0f78BMKFHATQ1xb_2E-186" vertex="1">
          <mxGeometry x="76" y="80" width="30" height="30" as="geometry" />
        </mxCell>
        <mxCell id="BE0f78BMKFHATQ1xb_2E-141" value="&lt;font color=&quot;#0d27e7&quot; style=&quot;font-size: 10px;&quot;&gt;2&lt;/font&gt;" style="text;html=1;align=center;verticalAlign=middle;resizable=0;points=[];autosize=1;fontColor=#3e0925;container=0;" parent="BE0f78BMKFHATQ1xb_2E-186" vertex="1">
          <mxGeometry x="97" y="110" width="30" height="30" as="geometry" />
        </mxCell>
        <mxCell id="BE0f78BMKFHATQ1xb_2E-143" value="&lt;font color=&quot;#0d27e7&quot; style=&quot;font-size: 10px;&quot;&gt;2&lt;/font&gt;" style="text;html=1;align=center;verticalAlign=middle;resizable=0;points=[];autosize=1;fontColor=#3e0925;container=0;" parent="BE0f78BMKFHATQ1xb_2E-186" vertex="1">
          <mxGeometry x="171" y="80" width="30" height="30" as="geometry" />
        </mxCell>
        <mxCell id="BE0f78BMKFHATQ1xb_2E-144" value="&lt;font color=&quot;#0d27e7&quot; style=&quot;font-size: 10px;&quot;&gt;1&lt;/font&gt;" style="text;html=1;align=center;verticalAlign=middle;resizable=0;points=[];autosize=1;fontColor=#3e0925;container=0;" parent="BE0f78BMKFHATQ1xb_2E-186" vertex="1">
          <mxGeometry x="196.5" y="115" width="30" height="30" as="geometry" />
        </mxCell>
        <mxCell id="BE0f78BMKFHATQ1xb_2E-147" value="&lt;font color=&quot;#0d27e7&quot; style=&quot;font-size: 10px;&quot;&gt;1&lt;/font&gt;" style="text;html=1;align=center;verticalAlign=middle;resizable=0;points=[];autosize=1;fontColor=#3e0925;container=0;" parent="BE0f78BMKFHATQ1xb_2E-186" vertex="1">
          <mxGeometry x="236" y="115" width="30" height="30" as="geometry" />
        </mxCell>
        <mxCell id="BE0f78BMKFHATQ1xb_2E-148" value="&lt;font color=&quot;#0d27e7&quot; style=&quot;font-size: 10px;&quot;&gt;1&lt;/font&gt;" style="text;html=1;align=center;verticalAlign=middle;resizable=0;points=[];autosize=1;fontColor=#3e0925;container=0;" parent="BE0f78BMKFHATQ1xb_2E-186" vertex="1">
          <mxGeometry x="283" y="80" width="30" height="30" as="geometry" />
        </mxCell>
        <mxCell id="BE0f78BMKFHATQ1xb_2E-149" value="&lt;font color=&quot;#0d27e7&quot; style=&quot;font-size: 10px;&quot;&gt;2&lt;/font&gt;" style="text;html=1;align=center;verticalAlign=middle;resizable=0;points=[];autosize=1;fontColor=#3e0925;container=0;" parent="BE0f78BMKFHATQ1xb_2E-186" vertex="1">
          <mxGeometry x="308.5" y="104" width="30" height="30" as="geometry" />
        </mxCell>
        <mxCell id="BE0f78BMKFHATQ1xb_2E-150" value="&lt;font color=&quot;#0d27e7&quot; style=&quot;font-size: 10px;&quot;&gt;2&lt;/font&gt;" style="text;html=1;align=center;verticalAlign=middle;resizable=0;points=[];autosize=1;fontColor=#3e0925;container=0;" parent="BE0f78BMKFHATQ1xb_2E-186" vertex="1">
          <mxGeometry x="340" y="104" width="30" height="30" as="geometry" />
        </mxCell>
        <mxCell id="BE0f78BMKFHATQ1xb_2E-152" value="&lt;font color=&quot;#0d27e7&quot; style=&quot;font-size: 10px;&quot;&gt;3&lt;/font&gt;" style="text;html=1;align=center;verticalAlign=middle;resizable=0;points=[];autosize=1;fontColor=#3e0925;container=0;" parent="BE0f78BMKFHATQ1xb_2E-186" vertex="1">
          <mxGeometry x="314.5" y="145" width="30" height="30" as="geometry" />
        </mxCell>
        <mxCell id="BE0f78BMKFHATQ1xb_2E-153" value="&lt;font color=&quot;#0d27e7&quot; style=&quot;font-size: 10px;&quot;&gt;3&lt;/font&gt;" style="text;html=1;align=center;verticalAlign=middle;resizable=0;points=[];autosize=1;fontColor=#3e0925;container=0;" parent="BE0f78BMKFHATQ1xb_2E-186" vertex="1">
          <mxGeometry x="356" y="145" width="30" height="30" as="geometry" />
        </mxCell>
        <mxCell id="BE0f78BMKFHATQ1xb_2E-179" value="&lt;font style=&quot;font-size: 16px;&quot;&gt;Step-3&lt;/font&gt;" style="rounded=1;whiteSpace=wrap;html=1;dashed=1;" parent="BE0f78BMKFHATQ1xb_2E-186" vertex="1">
          <mxGeometry x="16" width="96" height="30" as="geometry" />
        </mxCell>
      </root>
    </mxGraphModel>
  </diagram>
  <diagram id="zrzmINMHYnjmt0QBFzd9" name="draft">
    <mxGraphModel dx="1353" dy="1912" grid="1" gridSize="10" guides="1" tooltips="1" connect="1" arrows="1" fold="1" page="1" pageScale="1" pageWidth="850" pageHeight="1100" math="0" shadow="0">
      <root>
        <mxCell id="0" />
        <mxCell id="1" parent="0" />
        <mxCell id="JHN-7zqqsr-M82M8sIj2-1" value="a" style="ellipse;whiteSpace=wrap;html=1;aspect=fixed;fontStyle=0" parent="1" vertex="1">
          <mxGeometry x="224.10358565737056" y="-855.1125401929261" width="16.881028938906752" height="16.881028938906752" as="geometry" />
        </mxCell>
        <mxCell id="JHN-7zqqsr-M82M8sIj2-2" value="&lt;font style=&quot;font-size: 12px;&quot;&gt;b&lt;/font&gt;" style="ellipse;whiteSpace=wrap;html=1;aspect=fixed;fontStyle=0" parent="1" vertex="1">
          <mxGeometry x="196.613545816733" y="-806.8810289389068" width="16.881028938906752" height="16.881028938906752" as="geometry" />
        </mxCell>
        <mxCell id="JHN-7zqqsr-M82M8sIj2-3" value="&lt;font style=&quot;font-size: 12px;&quot;&gt;c&lt;/font&gt;" style="ellipse;whiteSpace=wrap;html=1;aspect=fixed;fontStyle=0" parent="1" vertex="1">
          <mxGeometry x="260.75697211155375" y="-806.8810289389068" width="16.881028938906752" height="16.881028938906752" as="geometry" />
        </mxCell>
        <mxCell id="JHN-7zqqsr-M82M8sIj2-4" value="" style="endArrow=none;html=1;rounded=0;entryX=1.001;entryY=0.625;entryDx=0;entryDy=0;exitX=0.5;exitY=0;exitDx=0;exitDy=0;entryPerimeter=0;" parent="1" source="JHN-7zqqsr-M82M8sIj2-3" target="JHN-7zqqsr-M82M8sIj2-1" edge="1">
          <mxGeometry width="50" height="50" relative="1" as="geometry">
            <mxPoint x="240" y="-790" as="sourcePoint" />
            <mxPoint x="290" y="-840" as="targetPoint" />
          </mxGeometry>
        </mxCell>
        <mxCell id="JHN-7zqqsr-M82M8sIj2-7" value="" style="endArrow=none;html=1;rounded=0;exitX=1;exitY=0;exitDx=0;exitDy=0;" parent="1" source="JHN-7zqqsr-M82M8sIj2-3" edge="1">
          <mxGeometry width="50" height="50" relative="1" as="geometry">
            <mxPoint x="277.64" y="-806.88" as="sourcePoint" />
            <mxPoint x="327.64" y="-856.88" as="targetPoint" />
          </mxGeometry>
        </mxCell>
        <mxCell id="JHN-7zqqsr-M82M8sIj2-8" value="1" style="text;html=1;align=center;verticalAlign=middle;resizable=0;points=[];autosize=1;strokeColor=none;fillColor=none;" parent="1" vertex="1">
          <mxGeometry x="260.76" y="-780" width="30" height="30" as="geometry" />
        </mxCell>
        <mxCell id="JHN-7zqqsr-M82M8sIj2-9" value="now" style="text;html=1;align=center;verticalAlign=middle;resizable=0;points=[];autosize=1;strokeColor=none;fillColor=none;" parent="1" vertex="1">
          <mxGeometry x="185" y="-872" width="50" height="30" as="geometry" />
        </mxCell>
        <mxCell id="JHN-7zqqsr-M82M8sIj2-10" value="d" style="ellipse;whiteSpace=wrap;html=1;aspect=fixed;fontStyle=0" parent="1" vertex="1">
          <mxGeometry x="320.00358565737054" y="-871.9925401929261" width="16.881028938906752" height="16.881028938906752" as="geometry" />
        </mxCell>
        <mxCell id="JHN-7zqqsr-M82M8sIj2-12" value="1" style="text;html=1;align=center;verticalAlign=middle;resizable=0;points=[];autosize=1;strokeColor=none;fillColor=none;" parent="1" vertex="1">
          <mxGeometry x="295" y="-842" width="30" height="30" as="geometry" />
        </mxCell>
        <mxCell id="JHN-7zqqsr-M82M8sIj2-13" value="e" style="ellipse;whiteSpace=wrap;html=1;aspect=fixed;fontStyle=0" parent="1" vertex="1">
          <mxGeometry x="260.75" y="-750" width="20" height="20" as="geometry" />
        </mxCell>
        <mxCell id="JHN-7zqqsr-M82M8sIj2-14" value="" style="endArrow=none;html=1;rounded=0;entryX=0.5;entryY=0;entryDx=0;entryDy=0;exitX=0.5;exitY=1;exitDx=0;exitDy=0;" parent="1" source="JHN-7zqqsr-M82M8sIj2-3" target="JHN-7zqqsr-M82M8sIj2-13" edge="1">
          <mxGeometry width="50" height="50" relative="1" as="geometry">
            <mxPoint x="240" y="-790" as="sourcePoint" />
            <mxPoint x="290" y="-840" as="targetPoint" />
          </mxGeometry>
        </mxCell>
        <mxCell id="JHN-7zqqsr-M82M8sIj2-15" value="1" style="text;html=1;align=center;verticalAlign=middle;resizable=0;points=[];autosize=1;strokeColor=none;fillColor=none;" parent="1" vertex="1">
          <mxGeometry x="230.76" y="-840" width="30" height="30" as="geometry" />
        </mxCell>
        <mxCell id="JHN-7zqqsr-M82M8sIj2-18" value="a" style="ellipse;whiteSpace=wrap;html=1;aspect=fixed;fontStyle=0;fillColor=#d5e8d4;strokeColor=#82b366;" parent="1" vertex="1">
          <mxGeometry x="212.22358565737056" y="-683.1225401929261" width="16.881028938906752" height="16.881028938906752" as="geometry" />
        </mxCell>
        <mxCell id="JHN-7zqqsr-M82M8sIj2-19" value="&lt;font style=&quot;font-size: 12px;&quot;&gt;b&lt;/font&gt;" style="ellipse;whiteSpace=wrap;html=1;aspect=fixed;fontStyle=0;fillColor=#d5e8d4;strokeColor=#82b366;" parent="1" vertex="1">
          <mxGeometry x="184.733545816733" y="-634.8910289389067" width="16.881028938906752" height="16.881028938906752" as="geometry" />
        </mxCell>
        <mxCell id="JHN-7zqqsr-M82M8sIj2-20" value="&lt;font style=&quot;font-size: 12px;&quot;&gt;c&lt;/font&gt;" style="ellipse;whiteSpace=wrap;html=1;aspect=fixed;fontStyle=0" parent="1" vertex="1">
          <mxGeometry x="248.87697211155375" y="-634.8910289389067" width="16.881028938906752" height="16.881028938906752" as="geometry" />
        </mxCell>
        <mxCell id="JHN-7zqqsr-M82M8sIj2-21" value="" style="endArrow=none;html=1;rounded=0;entryX=1.001;entryY=0.625;entryDx=0;entryDy=0;exitX=0.5;exitY=0;exitDx=0;exitDy=0;entryPerimeter=0;" parent="1" source="JHN-7zqqsr-M82M8sIj2-20" target="JHN-7zqqsr-M82M8sIj2-18" edge="1">
          <mxGeometry width="50" height="50" relative="1" as="geometry">
            <mxPoint x="228.12" y="-618.01" as="sourcePoint" />
            <mxPoint x="278.12" y="-668.01" as="targetPoint" />
          </mxGeometry>
        </mxCell>
        <mxCell id="JHN-7zqqsr-M82M8sIj2-22" value="" style="endArrow=none;html=1;rounded=0;exitX=0.5;exitY=0;exitDx=0;exitDy=0;entryX=0.079;entryY=0.757;entryDx=0;entryDy=0;entryPerimeter=0;" parent="1" source="JHN-7zqqsr-M82M8sIj2-19" target="JHN-7zqqsr-M82M8sIj2-18" edge="1">
          <mxGeometry width="50" height="50" relative="1" as="geometry">
            <mxPoint x="168.12" y="-618.01" as="sourcePoint" />
            <mxPoint x="218.12" y="-668.01" as="targetPoint" />
          </mxGeometry>
        </mxCell>
        <mxCell id="JHN-7zqqsr-M82M8sIj2-23" value="2" style="text;html=1;align=center;verticalAlign=middle;resizable=0;points=[];autosize=1;strokeColor=none;fillColor=none;" parent="1" vertex="1">
          <mxGeometry x="178.17000000000002" y="-668.01" width="30" height="30" as="geometry" />
        </mxCell>
        <mxCell id="JHN-7zqqsr-M82M8sIj2-25" value="1" style="text;html=1;align=center;verticalAlign=middle;resizable=0;points=[];autosize=1;strokeColor=none;fillColor=none;" parent="1" vertex="1">
          <mxGeometry x="248.88" y="-608.01" width="30" height="30" as="geometry" />
        </mxCell>
        <mxCell id="JHN-7zqqsr-M82M8sIj2-28" value="e" style="ellipse;whiteSpace=wrap;html=1;aspect=fixed;fontStyle=0" parent="1" vertex="1">
          <mxGeometry x="248.87" y="-578.01" width="20" height="20" as="geometry" />
        </mxCell>
        <mxCell id="JHN-7zqqsr-M82M8sIj2-29" value="" style="endArrow=none;html=1;rounded=0;entryX=0.5;entryY=0;entryDx=0;entryDy=0;exitX=0.5;exitY=1;exitDx=0;exitDy=0;" parent="1" source="JHN-7zqqsr-M82M8sIj2-20" target="JHN-7zqqsr-M82M8sIj2-28" edge="1">
          <mxGeometry width="50" height="50" relative="1" as="geometry">
            <mxPoint x="228.12" y="-618.01" as="sourcePoint" />
            <mxPoint x="278.12" y="-668.01" as="targetPoint" />
          </mxGeometry>
        </mxCell>
        <mxCell id="JHN-7zqqsr-M82M8sIj2-30" value="1" style="text;html=1;align=center;verticalAlign=middle;resizable=0;points=[];autosize=1;strokeColor=none;fillColor=none;" parent="1" vertex="1">
          <mxGeometry x="238.87" y="-668.01" width="30" height="30" as="geometry" />
        </mxCell>
        <mxCell id="JHN-7zqqsr-M82M8sIj2-31" value=".56" style="text;html=1;align=center;verticalAlign=middle;resizable=0;points=[];autosize=1;strokeColor=none;fillColor=none;" parent="1" vertex="1">
          <mxGeometry x="190" y="-662" width="40" height="30" as="geometry" />
        </mxCell>
        <mxCell id="JHN-7zqqsr-M82M8sIj2-32" value=".45" style="text;html=1;align=center;verticalAlign=middle;resizable=0;points=[];autosize=1;strokeColor=none;fillColor=none;" parent="1" vertex="1">
          <mxGeometry x="220.76" y="-689.68" width="40" height="30" as="geometry" />
        </mxCell>
        <mxCell id="JHN-7zqqsr-M82M8sIj2-33" value="out degree" style="text;html=1;align=center;verticalAlign=middle;resizable=0;points=[];autosize=1;strokeColor=#d6b656;fillColor=#fff2cc;" parent="1" vertex="1">
          <mxGeometry x="277.64" y="-632" width="80" height="30" as="geometry" />
        </mxCell>
        <mxCell id="JHN-7zqqsr-M82M8sIj2-34" value="" style="endArrow=none;html=1;rounded=0;exitX=1;exitY=0;exitDx=0;exitDy=0;entryX=0.025;entryY=0.062;entryDx=0;entryDy=0;entryPerimeter=0;" parent="1" source="JHN-7zqqsr-M82M8sIj2-2" target="JHN-7zqqsr-M82M8sIj2-15" edge="1">
          <mxGeometry width="50" height="50" relative="1" as="geometry">
            <mxPoint x="215" y="-797" as="sourcePoint" />
            <mxPoint x="235" y="-832" as="targetPoint" />
          </mxGeometry>
        </mxCell>
        <mxCell id="JHN-7zqqsr-M82M8sIj2-35" value="2" style="text;html=1;align=center;verticalAlign=middle;resizable=0;points=[];autosize=1;strokeColor=none;fillColor=none;" parent="1" vertex="1">
          <mxGeometry x="210.98000000000002" y="-830" width="30" height="30" as="geometry" />
        </mxCell>
        <mxCell id="JHN-7zqqsr-M82M8sIj2-36" value="2" style="text;html=1;align=center;verticalAlign=middle;resizable=0;points=[];autosize=1;strokeColor=#82b366;fillColor=#d5e8d4;" parent="1" vertex="1">
          <mxGeometry x="160" y="-813.44" width="30" height="30" as="geometry" />
        </mxCell>
        <mxCell id="JHN-7zqqsr-M82M8sIj2-37" value="4" style="text;html=1;align=center;verticalAlign=middle;resizable=0;points=[];autosize=1;strokeColor=#b85450;fillColor=#f8cecc;" parent="1" vertex="1">
          <mxGeometry x="290" y="-800" width="30" height="30" as="geometry" />
        </mxCell>
        <mxCell id="JHN-7zqqsr-M82M8sIj2-38" value="" style="endArrow=none;html=1;rounded=0;exitX=0.695;exitY=0.046;exitDx=0;exitDy=0;exitPerimeter=0;" parent="1" source="JHN-7zqqsr-M82M8sIj2-3" edge="1">
          <mxGeometry width="50" height="50" relative="1" as="geometry">
            <mxPoint x="250" y="-810" as="sourcePoint" />
            <mxPoint x="290" y="-860" as="targetPoint" />
          </mxGeometry>
        </mxCell>
        <mxCell id="JHN-7zqqsr-M82M8sIj2-39" value="" style="endArrow=none;html=1;rounded=0;exitX=1;exitY=0.5;exitDx=0;exitDy=0;" parent="1" source="JHN-7zqqsr-M82M8sIj2-3" edge="1">
          <mxGeometry width="50" height="50" relative="1" as="geometry">
            <mxPoint x="310" y="-770" as="sourcePoint" />
            <mxPoint x="370" y="-820" as="targetPoint" />
          </mxGeometry>
        </mxCell>
        <mxCell id="JHN-7zqqsr-M82M8sIj2-40" value="" style="endArrow=none;html=1;rounded=0;entryX=0;entryY=0.5;entryDx=0;entryDy=0;exitX=1;exitY=0.5;exitDx=0;exitDy=0;" parent="1" source="JHN-7zqqsr-M82M8sIj2-19" target="JHN-7zqqsr-M82M8sIj2-20" edge="1">
          <mxGeometry width="50" height="50" relative="1" as="geometry">
            <mxPoint x="200" y="-570" as="sourcePoint" />
            <mxPoint x="250" y="-620" as="targetPoint" />
          </mxGeometry>
        </mxCell>
        <mxCell id="JHN-7zqqsr-M82M8sIj2-41" value="1" style="text;html=1;align=center;verticalAlign=middle;resizable=0;points=[];autosize=1;strokeColor=none;fillColor=none;" parent="1" vertex="1">
          <mxGeometry x="205" y="-632" width="30" height="30" as="geometry" />
        </mxCell>
        <mxCell id="JHN-7zqqsr-M82M8sIj2-42" value="" style="endArrow=none;html=1;rounded=0;" parent="1" edge="1">
          <mxGeometry width="50" height="50" relative="1" as="geometry">
            <mxPoint x="200" y="-570" as="sourcePoint" />
            <mxPoint x="250" y="-620" as="targetPoint" />
          </mxGeometry>
        </mxCell>
        <mxCell id="JHN-7zqqsr-M82M8sIj2-43" value="" style="endArrow=none;html=1;rounded=0;entryX=0.766;entryY=0.924;entryDx=0;entryDy=0;entryPerimeter=0;" parent="1" target="JHN-7zqqsr-M82M8sIj2-20" edge="1">
          <mxGeometry width="50" height="50" relative="1" as="geometry">
            <mxPoint x="300" y="-560" as="sourcePoint" />
            <mxPoint x="300" y="-590" as="targetPoint" />
          </mxGeometry>
        </mxCell>
      </root>
    </mxGraphModel>
  </diagram>
</mxfile>
